<svg xmlns="http://www.w3.org/2000/svg" width="647.873" height="431.593" viewBox="0 0 647.873 431.593"><g transform="translate(-11066.567 -6909.361)"><path d="M11615.575,6961.869s-47.253,14.381-89.547,42.353c-28.254,18.687-40.984,47.625-86.529,67.344-112.733,48.809-295.466-1.042-357,84.8s80.681,183.047,80.681,183.047" transform="translate(0 -16)" fill="none" stroke="#9dcd67" stroke-width="1"/><g transform="translate(537 473)"><rect width="449" height="301" rx="17" transform="translate(10641 6554)" fill="#263238"/><path d="M11208.974,7109.218h478.673s3.938,12.483,0,18.792-15.753,6.444-15.753,6.444h-447.515s-11.554-.135-15.405-6.444S11208.974,7109.218,11208.974,7109.218Z" transform="translate(-583 -267)" fill="#263238" stroke="#707070" stroke-width="1"/><path d="M0,0H91.722L84.265,13H7.143Z" transform="translate(10810.146 6842)" fill="#455a64"/></g><g transform="translate(11202 7051)" fill="#ebebeb" stroke="#707070" stroke-width="1"><rect width="401" height="236" stroke="none"/><rect x="0.5" y="0.5" width="400" height="235" fill="none"/></g><path d="M10.147,46.027S-15.574,31.136,14.885,0c-2.947,11.326,7.533,16.2,6.349,27.71S10.147,46.027,10.147,46.027Z" transform="translate(11499.944 7189.331) rotate(-39)" fill="#9dcd67"/><path d="M10.147,0s-25.721,14.891,4.738,46.027c-2.947-11.326,7.533-16.2,6.349-27.71S10.147,0,10.147,0Z" transform="translate(11533.917 7224.171) rotate(-53)" fill="#9dcd67"/><path d="M6.927,31.419S-10.631,21.254,10.161,0C8.149,7.731,15.3,11.061,14.495,18.916S6.927,31.419,6.927,31.419Z" transform="matrix(0.978, -0.208, 0.208, 0.978, 11539.362, 7169.846)" fill="#9dcd67"/><path d="M6.927,31.418S-10.631,21.254,10.161,0C8.149,7.731,15.3,11.061,14.494,18.915S6.927,31.418,6.927,31.418Z" transform="matrix(-0.017, 1, -1, -0.017, 11583.582, 7192.694)" fill="#9dcd67"/><path d="M11515.621,7233.992s14.066-6.447,23.444-15.629a68.362,68.362,0,0,0,14.065-21.1" fill="none" stroke="#707070" stroke-width="1"/><g transform="translate(11225.944 7087.819)"><path d="M10.147,0s-25.721,14.891,4.738,46.027c-2.947-11.326,7.533-16.2,6.349-27.71S10.147,0,10.147,0Z" transform="translate(54.672 58.281) rotate(-141)" fill="#9dcd67"/><path d="M10.147,46.027S-15.574,31.136,14.885,0c-2.947,11.326,7.533,16.2,6.349,27.71S10.147,46.027,10.147,46.027Z" transform="matrix(-0.602, -0.799, 0.799, -0.602, 12.907, 85.052)" fill="#9dcd67"/><path d="M6.927,0s-17.558,10.165,3.234,31.419C8.149,23.687,15.3,20.358,14.495,12.5S6.927,0,6.927,0Z" transform="matrix(-0.978, -0.208, 0.208, -0.978, 37.687, 33.759)" fill="#9dcd67"/><path d="M6.927,0s-17.557,10.165,3.234,31.418C8.149,23.687,15.3,20.358,14.494,12.5S6.927,0,6.927,0Z" transform="matrix(0.017, 1, -1, 0.017, 31.414, 25.327)" fill="#9dcd67"/><path d="M11553.131,7233.992s-14.066-6.447-23.444-15.629a68.362,68.362,0,0,1-14.065-21.1" transform="translate(-11485.17 -7166.819)" fill="none" stroke="#707070" stroke-width="1"/></g><g transform="translate(11284 6977)" fill="#fafafa" stroke="#1f729e" stroke-width="1"><rect width="239" height="285" stroke="none"/><rect x="0.5" y="0.5" width="238" height="284" fill="none"/></g><g transform="translate(11272.194 7139.84)"><text transform="translate(27.044 -27.234)" fill="#1f729e" font-size="40" font-family="MS-UIGothic, MS UI Gothic"><tspan x="0" y="0">Nuestros</tspan><tspan x="0" y="48" xml:space="preserve">      Clientes</tspan></text></g><line y1="1" x2="199" transform="translate(11300.5 7235.5)" fill="none" stroke="#1d6991" stroke-width="1"/><line x2="163" transform="translate(11314.5 7247.5)" fill="none" stroke="#1d9fe5" stroke-width="1"/><g transform="translate(84 -31)"><path d="M11681.44,6913.361l-107.166,4.165,17.191,14.848v17.974l11.723-9.377,17.974,9.377Z" transform="translate(-51 27)" fill="#9dcd67"/><path d="M11541.764,6976.994l12.016-12.219,75.9-23.628-87.914,17.185Z" transform="translate(-1)"/></g></g></svg>