<?xml version="1.0" encoding="utf-8"?>
<!-- Generator: Adobe Illustrator 16.0.3, SVG Export Plug-In . SVG Version: 6.00 Build 0)  -->
<!DOCTYPE svg PUBLIC "-//W3C//DTD SVG 1.1//EN" "http://www.w3.org/Graphics/SVG/1.1/DTD/svg11.dtd">
<svg version="1.1" xmlns="http://www.w3.org/2000/svg" xmlns:xlink="http://www.w3.org/1999/xlink" x="0px" y="0px" width="750px"
	 height="500px" viewBox="0 0 750 500" enable-background="new 0 0 750 500" xml:space="preserve">
<g id="Background_Complete">
</g>
<g id="Background_Simple" display="none">
	<path display="inline" fill="#E0E0E0" d="M666.817,223.525c-14.921-20.302-39.432-33.696-64.627-33.551
		c-41.473,0.238-74.789,34.017-114.62,45.571c-25.555,7.413-53.787,5.17-77.851-6.183c-66.787-31.511-89.8-122.024-156.909-152.84
		c-46.881-21.527-106.44-5.405-140.499,33.341c-34.058,38.746-43.198,96.014-28.633,145.502
		c14.565,49.488,40.102,98.061,84.08,125.026l4.05,3.716c92.472,62.963,220.259,69.408,346.915,51.717
		c37.535-5.243,73.526-21.477,105.525-41.786c31.998-20.31,53.411-61.297,59.175-98.756
		C687.254,270.378,681.739,243.827,666.817,223.525z"/>
</g>
<g id="Floor">
</g>
<g id="Device">
	<g>
		<g>
			<g>
				<g>
					<g>
						<path fill="#263238" d="M581.773,446.464H168.321c-8.045,0-14.567-6.522-14.567-14.567V168.353
							c0-8.045,6.522-14.567,14.567-14.567h413.452c8.046,0,14.567,6.522,14.567,14.567v263.544
							C596.34,439.942,589.819,446.464,581.773,446.464z"/>
					</g>
				</g>
			</g>
			<g>
				<g>
					<g>
						<path fill="#263238" d="M596.958,450.426H153.042c-9.829,0-17.797-7.968-17.797-17.797v-7.812h479.509v7.812
							C614.754,442.458,606.787,450.426,596.958,450.426z"/>
					</g>
				</g>
			</g>
			<g>
				<g>
					<g>
						<rect x="165.634" y="165.414" fill="#455A64" width="417.589" height="247.163"/>
					</g>
				</g>
			</g>
			<g>
				<g>
					<g>
						<polygon fill="#455A64" points="331.417,424.818 337.367,434.283 421.095,434.283 426.621,424.818 						"/>
					</g>
				</g>
			</g>
		</g>
		<g>
			<g>
				<g>
					<g>
						<g>
							<g>
								<g>
									<path fill="#EBEBEB" d="M572.208,411.786h-394.7c-1.808,0-3.273-1.466-3.273-3.273V177.055
										c0-1.808,1.465-3.273,3.272-3.273h394.701c1.807,0,3.272,1.465,3.272,3.272v231.459
										C575.481,410.321,574.015,411.786,572.208,411.786z"/>
								</g>
							</g>
						</g>
					</g>
					<g>
						<g>
							<g>
								<g>
									<rect x="174.235" y="191.22" fill="#EBEBEB" width="401.246" height="220.565"/>
								</g>
							</g>
						</g>
					</g>
					<g>
						<g>
							<g>
								<g>
									<circle fill="#455A64" cx="203.939" cy="182.973" r="3.204"/>
								</g>
							</g>
						</g>
					</g>
					<g>
						<g>
							<g>
								<g>
									<circle fill="#455A64" cx="184.517" cy="182.973" r="3.205"/>
								</g>
							</g>
						</g>
					</g>
					<g>
						<g>
							<g>
								<g>
									<circle fill="#455A64" cx="193.839" cy="182.973" r="3.205"/>
								</g>
							</g>
						</g>
					</g>
				</g>
			</g>
		</g>
		<g>
			<g>
				<g>
					<path fill="#455A64" d="M592.538,424.818c0,0.158-98.233,0.287-219.382,0.287c-121.19,0-219.402-0.129-219.402-0.287
						s98.212-0.287,219.402-0.287C494.304,424.531,592.538,424.66,592.538,424.818z"/>
				</g>
			</g>
		</g>
	</g>
</g>
<g id="Paper_Plane">
	<g>
		<g>
			<g>
				<g>
					<path fill="#263238" d="M153.661,428.041c-0.005,0.007-0.119-0.062-0.339-0.204c-0.226-0.149-0.55-0.366-0.978-0.65
						c-0.432-0.293-0.966-0.655-1.601-1.086c-0.635-0.436-1.387-0.919-2.167-1.567c-0.796-0.629-1.686-1.331-2.667-2.106
						c-0.974-0.786-1.955-1.744-3.063-2.729c-2.177-2.013-4.528-4.511-6.969-7.495c-4.827-5.992-9.757-14.225-13.167-24.659
						c-3.343-10.422-5.188-23.001-4.149-36.772c0.529-6.871,1.637-14.055,3.734-21.294c2.063-7.237,4.98-14.596,9.236-21.536
						c1.048-1.743,2.231-3.424,3.458-5.088c1.295-1.607,2.602-3.227,3.918-4.859c1.393-1.567,2.844-3.105,4.28-4.678
						c1.47-1.539,3.061-2.982,4.604-4.496c6.343-5.874,13.48-11.23,21.13-16.171c15.315-9.907,32.63-18.107,50.453-26.646
						c17.767-8.703,36.492-17.051,55.691-25.493c76.893-33.675,147.266-62.364,198.529-82.283
						c25.615-10.004,46.525-17.629,60.986-22.857c7.244-2.578,12.898-4.497,16.723-5.822c1.911-0.65,3.369-1.146,4.359-1.483
						c0.487-0.16,0.858-0.281,1.115-0.365c0.25-0.079,0.379-0.115,0.382-0.106c0.003,0.008-0.12,0.061-0.364,0.157
						c-0.253,0.096-0.618,0.233-1.098,0.415c-0.982,0.359-2.43,0.888-4.325,1.581c-3.815,1.375-9.428,3.399-16.654,6.005
						c-14.416,5.344-35.28,13.072-60.856,23.162c-51.183,20.09-121.502,48.883-198.377,82.55
						c-19.202,8.443-37.899,16.77-55.669,25.459c-17.835,8.529-35.118,16.694-50.374,26.533
						c-7.621,4.906-14.721,10.218-21.028,16.037c-1.533,1.498-3.115,2.928-4.576,4.452c-1.427,1.556-2.87,3.079-4.254,4.629
						c-1.309,1.616-2.607,3.219-3.895,4.809c-1.215,1.641-2.383,3.292-3.423,5.013c-4.219,6.843-7.132,14.129-9.198,21.303
						c-2.101,7.177-3.223,14.306-3.772,21.128c-1.079,13.674,0.702,26.173,3.969,36.54c3.335,10.379,8.178,18.587,12.93,24.584
						c2.403,2.987,4.719,5.495,6.865,7.523c1.093,0.992,2.059,1.959,3.019,2.754c0.967,0.787,1.843,1.501,2.627,2.14
						c0.768,0.659,1.508,1.156,2.131,1.604c0.622,0.447,1.146,0.823,1.568,1.127c0.414,0.304,0.729,0.533,0.947,0.693
						C153.562,427.95,153.666,428.033,153.661,428.041z"/>
				</g>
			</g>
		</g>
		<g>
			<g>
				<g>
					<g>
						<polygon fill="#E8505B" points="540.353,74.661 558.868,90.012 557.16,107.593 572.329,99.16 588.486,110.637 648.712,71.96 
													"/>
					</g>
				</g>
				<g opacity="0.5">
					<g>
						<polygon points="558.868,90.012 647.081,72 567.85,95.979 557.16,107.593 557.16,107.593 						"/>
					</g>
				</g>
			</g>
			<g opacity="0.8">
				<g>
					<polygon points="567.85,95.979 572.329,99.16 557.16,107.593 					"/>
				</g>
			</g>
		</g>
	</g>
</g>
<g id="Letters">
	<g>
		<g>
			<g>
				
					<rect x="197.088" y="310.232" transform="matrix(0.9955 -0.0944 0.0944 0.9955 -31.2771 24.7081)" fill="#FFFFFF" width="96.633" height="65.133"/>
			</g>
			<g>
				<g>
					<path fill="#455A64" d="M296.58,370.657c0,0-0.066-0.419-0.153-1.199c-0.087-0.816-0.209-1.962-0.367-3.439
						c-0.31-3.041-0.758-7.442-1.331-13.061c-1.115-11.28-2.713-27.436-4.658-47.109l0.391,0.324
						c-26.556,2.544-59.975,5.745-96.185,9.214c-0.096,0.105,0.757-0.923,0.397-0.479l0.001,0.017l0.003,0.034l0.006,0.067
						l0.013,0.136l0.025,0.271l0.051,0.541l0.103,1.081l0.205,2.157c0.136,1.436,0.271,2.866,0.407,4.292
						c0.27,2.852,0.538,5.684,0.804,8.494c0.531,5.62,1.053,11.151,1.565,16.579c1.02,10.853,2,21.287,2.929,31.167l-0.447-0.369
						c28.281-2.601,52.279-4.807,69.25-6.366c8.474-0.757,15.192-1.356,19.835-1.771c2.282-0.194,4.053-0.346,5.294-0.452
						c0.58-0.045,1.031-0.079,1.376-0.106C296.408,370.657,296.571,370.65,296.58,370.657c0.009,0.008-0.137,0.029-0.431,0.065
						c-0.332,0.038-0.767,0.087-1.325,0.149c-1.221,0.128-2.961,0.31-5.204,0.544c-4.617,0.464-11.296,1.135-19.722,1.981
						c-17.028,1.665-41.105,4.02-69.48,6.795l-0.408,0.04l-0.04-0.41c-0.946-9.879-1.945-20.312-2.984-31.162
						c-0.517-5.427-1.044-10.959-1.58-16.578c-0.267-2.81-0.537-5.642-0.808-8.493c-0.135-1.426-0.271-2.857-0.408-4.292
						l-0.205-2.157l-0.103-1.081l-0.051-0.541l-0.026-0.271l-0.013-0.135l-0.006-0.068l-0.003-0.033l-0.001-0.018
						c-0.363,0.431,0.491-0.606,0.411-0.498c36.216-3.402,69.641-6.542,96.201-9.036l0.359-0.034l0.033,0.357
						c1.797,19.781,3.273,36.025,4.304,47.367c0.491,5.591,0.875,9.972,1.141,12.997c0.121,1.453,0.214,2.578,0.28,3.381
						C296.571,370.285,296.58,370.657,296.58,370.657z"/>
				</g>
			</g>
		</g>
		<g>
			<g>
				<path fill="#455A64" d="M290.429,305.814c0.022,0.021-0.235,0.35-0.745,0.96c-0.574,0.668-1.327,1.545-2.267,2.641
					c-2.064,2.344-4.943,5.613-8.483,9.634c-7.298,8.161-17.306,19.354-28.459,31.826l-0.253,0.283l-0.321-0.205
					c-0.812-0.517-1.685-1.072-2.562-1.632c-14.671-9.411-27.947-17.927-37.656-24.155c-4.733-3.087-8.592-5.604-11.356-7.406
					c-1.272-0.853-2.291-1.534-3.063-2.052c-0.695-0.478-1.052-0.741-1.035-0.767c0.017-0.026,0.406,0.186,1.132,0.614
					c0.795,0.481,1.844,1.116,3.153,1.91c2.801,1.744,6.712,4.179,11.509,7.166c9.745,6.17,23.071,14.608,37.797,23.934
					c0.877,0.559,1.75,1.115,2.561,1.633l-0.574,0.078c11.234-12.4,21.315-23.528,28.666-31.642
					c3.627-3.942,6.577-7.148,8.691-9.447c0.991-1.05,1.784-1.891,2.389-2.531C290.106,306.084,290.406,305.794,290.429,305.814z"/>
			</g>
		</g>
	</g>
	<g>
		<g>
			<g>
				
					<rect x="485.962" y="220.894" transform="matrix(0.9623 0.272 -0.272 0.9623 86.2355 -132.5885)" fill="#FFFFFF" width="70.905" height="47.792"/>
			</g>
			<g>
				<g>
					<path fill="#455A64" d="M549.032,277.429c0,0,0.066-0.305,0.214-0.861c0.157-0.582,0.378-1.397,0.662-2.45
						c0.595-2.163,1.456-5.293,2.555-9.288c2.23-8.013,5.425-19.488,9.314-33.463l0.182,0.325
						c-18.842-5.307-42.553-11.984-68.244-19.22c-0.094,0.046,0.762-0.431,0.398-0.222l-0.003,0.012l-0.007,0.024l-0.014,0.048
						l-0.027,0.096l-0.055,0.192l-0.108,0.384l-0.217,0.767l-0.432,1.53c-0.288,1.018-0.575,2.033-0.861,3.044
						c-0.572,2.023-1.141,4.031-1.704,6.024c-1.128,3.986-2.239,7.909-3.328,11.757c-2.183,7.695-4.281,15.094-6.268,22.099
						l-0.208-0.371c20.037,5.726,37.039,10.585,49.063,14.021c5.998,1.73,10.753,3.104,14.039,4.052
						c1.613,0.473,2.864,0.839,3.742,1.096c0.408,0.123,0.727,0.219,0.97,0.292C548.915,277.383,549.028,277.421,549.032,277.429
						c0.004,0.007-0.102-0.017-0.313-0.07c-0.236-0.063-0.547-0.145-0.946-0.249c-0.868-0.236-2.107-0.574-3.703-1.009
						c-3.282-0.908-8.029-2.222-14.018-3.878c-12.091-3.38-29.188-8.158-49.335-13.79l-0.29-0.081l0.082-0.291
						c1.975-7.009,4.06-14.411,6.228-22.11c1.086-3.85,2.193-7.773,3.318-11.76c0.563-1.993,1.13-4.002,1.701-6.025
						c0.286-1.011,0.572-2.026,0.86-3.044l0.433-1.53l0.217-0.767l0.108-0.384l0.054-0.192l0.027-0.096l0.014-0.048l0.007-0.024
						l0.003-0.012c-0.362,0.198,0.497-0.285,0.414-0.232c25.678,7.283,49.377,14.005,68.209,19.347l0.255,0.072l-0.073,0.253
						c-4.02,14.01-7.319,25.514-9.625,33.546c-1.147,3.955-2.047,7.054-2.668,9.194c-0.303,1.025-0.538,1.82-0.705,2.387
						C549.125,277.171,549.032,277.429,549.032,277.429z"/>
				</g>
			</g>
		</g>
		<g>
			<g>
				<path fill="#455A64" d="M562.031,231.438c0.01,0.02-0.253,0.177-0.765,0.458c-0.569,0.305-1.317,0.705-2.251,1.205
					c-2.034,1.056-4.871,2.529-8.36,4.34c-7.158,3.646-16.975,8.647-27.915,14.22l-0.248,0.127l-0.165-0.226
					c-0.418-0.569-0.867-1.181-1.319-1.796c-7.539-10.331-14.361-19.68-19.351-26.517c-2.419-3.368-4.391-6.113-5.803-8.08
					c-0.645-0.921-1.16-1.658-1.552-2.217c-0.349-0.511-0.522-0.786-0.504-0.799c0.018-0.013,0.228,0.235,0.611,0.721
					c0.416,0.541,0.965,1.253,1.65,2.144c1.453,1.937,3.482,4.64,5.972,7.957c5.029,6.807,11.906,16.116,19.506,26.403
					c0.452,0.616,0.901,1.228,1.319,1.796l-0.413-0.099c10.976-5.502,20.824-10.439,28.006-14.039
					c3.527-1.735,6.396-3.146,8.453-4.157c0.956-0.455,1.722-0.82,2.306-1.098C561.738,231.537,562.021,231.418,562.031,231.438z"/>
			</g>
		</g>
	</g>
</g>
<g id="Plant">
	<g>
		<g>
			<g>
				<g>
					<path fill="#E8505B" d="M202.164,201.177c0,0,4.705-3.81,11.996,7.62c7.292,11.431,10.284,18.14,10.284,18.14
						s1.863,2.362,3.435,0.548s3.489-6.715,6.512-6.158c3.135,0.577,4.469,3.884,4.372,8.943
						c-0.098,5.059,0.095,16.151,0.117,17.153c0.021,0.985,0.72,2.371,1.988,1.306c1.268-1.064,8.241-10.524,12.532-6.947
						s1.704,17.626,1.45,19.167c-0.254,1.542,0.103,2.155,0.852,2.458c0.75,0.303,2.794-3.098,4.888-5.707s4.979-5.269,7.281-2.997
						c2.302,2.271,3.956,12.465-4.194,30.07l-4.311,7.91l-9.041,0.372c-19.396-0.385-27.836-6.335-28.87-9.4
						c-1.034-3.064,2.62-4.494,5.883-5.233s7.215-1.087,7.271-1.894c0.056-0.807-0.339-1.396-1.836-1.843
						s-15.259-4.274-16.597-9.698c-1.336-5.425,10.222-7.55,11.734-8.224c1.512-0.675,0.573-1.91-0.303-2.359
						c-0.892-0.459-10.779-5.49-15.37-7.618c-4.59-2.128-6.979-4.776-6.125-7.847c0.824-2.961,6.069-2.539,8.388-3.157
						c2.319-0.618,1.011-3.328,1.011-3.328s-4.721-5.629-11.803-17.19c-7.083-11.561-1.446-14.159-1.446-14.159"/>
				</g>
			</g>
		</g>
		<g>
			<g>
				<g>
					<g>
						<path fill="#263238" d="M208.711,211.402c0,0,0.041,0.087,0.135,0.25c0.102,0.173,0.242,0.412,0.423,0.719
							c0.385,0.641,0.94,1.564,1.652,2.748c1.437,2.385,3.542,5.82,6.161,10.055c5.233,8.471,12.561,20.112,20.697,32.94
							c8.139,12.833,15.496,24.456,20.775,32.897c2.631,4.214,4.762,7.629,6.243,10.002c0.733,1.171,1.304,2.084,1.701,2.718
							c0.191,0.3,0.34,0.533,0.448,0.702c0.103,0.158,0.162,0.234,0.162,0.234s-0.042-0.088-0.135-0.25
							c-0.102-0.173-0.242-0.412-0.423-0.719c-0.385-0.641-0.94-1.563-1.651-2.748c-1.438-2.384-3.542-5.819-6.161-10.054
							c-5.233-8.472-12.562-20.113-20.7-32.946c-8.136-12.829-15.493-24.45-20.772-32.892c-2.63-4.215-4.761-7.629-6.243-10.003
							c-0.732-1.171-1.304-2.084-1.7-2.718c-0.192-0.3-0.341-0.533-0.449-0.703C208.77,211.479,208.711,211.402,208.711,211.402z"/>
					</g>
				</g>
			</g>
		</g>
		<g>
			<g>
				<g>
					<g>
						<path fill="#263238" d="M231.983,228.291c-0.021-0.004-0.081,0.22-0.172,0.629c-0.093,0.408-0.209,1.003-0.346,1.739
							c-0.27,1.473-0.588,3.517-0.898,5.778c-0.295,2.226-0.562,4.238-0.768,5.792c-0.094,0.688-0.175,1.274-0.24,1.753
							c-0.058,0.414-0.081,0.645-0.06,0.649c0.021,0.004,0.083-0.219,0.177-0.628c0.092-0.409,0.208-1.004,0.337-1.742
							c0.255-1.476,0.547-3.522,0.857-5.784c0.311-2.222,0.591-4.231,0.809-5.785c0.098-0.688,0.182-1.273,0.25-1.753
							C231.983,228.526,232.004,228.294,231.983,228.291z"/>
					</g>
				</g>
			</g>
		</g>
		<g>
			<g>
				<g>
					<g>
						
							<ellipse transform="matrix(0.9832 0.1824 -0.1824 0.9832 48.0273 -35.9257)" fill="#263238" cx="219.32" cy="243.132" rx="9.531" ry="0.153"/>
					</g>
				</g>
			</g>
		</g>
		<g>
			<g>
				<g>
					<g>
						<path fill="#263238" d="M242.076,264.011c-0.003-0.021-0.24-0.01-0.666,0.028c-0.49,0.049-1.091,0.107-1.799,0.177
							c-1.519,0.147-3.617,0.345-5.939,0.479c-2.323,0.14-4.43,0.194-5.956,0.223c-0.711,0.014-1.315,0.026-1.808,0.036
							c-0.427,0.012-0.664,0.028-0.664,0.049c0,0.021,0.235,0.045,0.663,0.07c0.427,0.024,1.045,0.049,1.809,0.061
							c1.528,0.026,3.643,0.007,5.973-0.134c2.33-0.134,4.432-0.366,5.947-0.568c0.757-0.104,1.369-0.197,1.79-0.273
							C241.847,264.083,242.079,264.032,242.076,264.011z"/>
					</g>
				</g>
			</g>
		</g>
		<g>
			<g>
				<g>
					<g>
						<path fill="#263238" d="M248.354,249.67c-0.02-0.009-0.128,0.182-0.307,0.534c-0.18,0.352-0.43,0.865-0.734,1.502
							c-0.608,1.273-1.428,3.042-2.316,5.003c-0.889,1.962-1.678,3.744-2.235,5.041c-0.279,0.648-0.5,1.175-0.646,1.542
							c-0.146,0.367-0.218,0.574-0.199,0.583c0.019,0.008,0.127-0.183,0.307-0.534c0.179-0.352,0.43-0.865,0.734-1.502
							c0.607-1.273,1.427-3.042,2.316-5.004c0.888-1.961,1.677-3.743,2.234-5.04c0.279-0.648,0.5-1.175,0.646-1.542
							C248.302,249.886,248.374,249.679,248.354,249.67z"/>
					</g>
				</g>
			</g>
		</g>
		<g>
			<g>
				<g>
					<g>
						<path fill="#263238" d="M262.317,265.067c-0.02-0.01-0.155,0.236-0.385,0.687c-0.25,0.508-0.567,1.152-0.946,1.922
							c-0.787,1.629-1.855,3.887-3.019,6.39s-2.2,4.775-2.938,6.428c-0.344,0.785-0.632,1.443-0.858,1.963
							c-0.197,0.466-0.296,0.728-0.277,0.736c0.019,0.01,0.155-0.236,0.385-0.687c0.25-0.508,0.568-1.152,0.947-1.922
							c0.787-1.629,1.855-3.887,3.019-6.391c1.163-2.502,2.2-4.774,2.938-6.427c0.344-0.785,0.632-1.443,0.858-1.962
							C262.237,265.337,262.336,265.076,262.317,265.067z"/>
					</g>
				</g>
			</g>
		</g>
		<g>
			<g>
				<g>
					<g>
						<path fill="#263238" d="M253.974,282.702c-0.002-0.021-0.302-0.014-0.843,0.017c-0.598,0.037-1.367,0.085-2.289,0.143
							c-1.933,0.119-4.603,0.275-7.554,0.366c-2.953,0.095-5.627,0.112-7.563,0.112c-0.924,0.002-1.694,0.003-2.293,0.003
							c-0.542,0.004-0.842,0.016-0.842,0.037c0,0.021,0.298,0.049,0.839,0.082c0.541,0.033,1.325,0.068,2.293,0.094
							c1.938,0.055,4.618,0.072,7.576-0.023c2.957-0.091,5.63-0.281,7.561-0.456c0.965-0.089,1.746-0.17,2.284-0.239
							C253.679,282.77,253.976,282.723,253.974,282.702z"/>
					</g>
				</g>
			</g>
		</g>
	</g>
	<g>
		<g>
			<path fill="#E8505B" d="M551.875,291.377c-3.361-1.545-7.364-1.311-10.793,0.079c-3.429,1.391-6.336,3.845-8.796,6.608
				c-4.76,5.347-7.41,13.148-8.739,20.183c7.891,0.973,15.602-4.087,19.353-6.899C548.827,306.904,556.841,295.271,551.875,291.377"
				/>
		</g>
		<g>
			<path fill="#E8505B" d="M509.277,321.01c3.767-1.701,6.231-5.723,6.518-9.846c0.287-4.123-1.431-8.245-4.201-11.313
				c-1.281-1.418-2.98-2.706-4.889-2.609c-1.784,0.091-3.334,1.434-4.079,3.057c-0.746,1.623-0.807,3.48-0.632,5.259
				C502.593,311.656,504.292,317.447,509.277,321.01"/>
		</g>
		<g>
			<g>
				<path fill="#263238" d="M498.914,340.908c0.045,0.032,0.397-0.371,0.994-1.129c0.597-0.759,1.439-1.872,2.438-3.282
					c1.975-2.816,4.672-6.84,6.484-11.859c1.811-5.027,1.966-10.027,1.205-13.436c-0.364-1.71-0.867-3.041-1.305-3.909
					c-0.434-0.872-0.742-1.314-0.782-1.292c-0.15,0.065,0.966,1.938,1.528,5.305c0.598,3.34,0.359,8.164-1.402,13.063
					c-1.768,4.9-4.351,8.924-6.198,11.811C500,339.061,498.816,340.839,498.914,340.908z"/>
			</g>
		</g>
		<g>
			<g>
				<path fill="#263238" d="M544.757,299.551c-0.035-0.043-0.745,0.483-1.997,1.471c-1.254,0.986-3.044,2.444-5.236,4.269
					c-4.385,3.646-10.359,8.785-16.816,14.619c-6.458,5.84-12.173,11.268-16.242,15.263c-2.036,1.997-3.666,3.631-4.773,4.779
					c-1.108,1.146-1.703,1.799-1.665,1.838c0.039,0.04,0.707-0.537,1.883-1.614c1.271-1.181,2.938-2.728,4.947-4.594
					c4.167-3.888,9.937-9.243,16.388-15.076c6.451-5.829,12.36-11.029,16.648-14.784c2.059-1.812,3.766-3.313,5.067-4.46
					C544.151,300.201,544.792,299.593,544.757,299.551z"/>
			</g>
		</g>
		<g>
			<path fill="#E8505B" d="M513.819,331.794c7.217-4.883,16.86-5.962,24.979-2.794c2.066,0.807,4.31,2.288,4.347,4.506
				c0.036,2.223-2.171,3.781-4.234,4.607c-8.585,3.437-19.184,1.012-25.421-5.816"/>
		</g>
		<g>
			<g>
				<path fill="#263238" d="M533.433,333.036c0.021-0.051-0.438-0.275-1.291-0.64c-0.425-0.19-0.952-0.401-1.587-0.582
					c-0.631-0.188-1.342-0.446-2.16-0.598c-1.616-0.397-3.592-0.651-5.795-0.729c-2.202-0.029-4.631,0.148-7.127,0.658
					c-2.489,0.542-4.783,1.361-6.786,2.278c-1.984,0.96-3.688,1.991-5.007,3.008c-0.688,0.469-1.233,0.992-1.735,1.42
					c-0.508,0.421-0.904,0.827-1.216,1.173c-0.634,0.678-0.963,1.068-0.923,1.106c0.111,0.111,1.516-1.384,4.204-3.238
					c1.334-0.938,3.03-1.896,4.984-2.797c1.974-0.858,4.216-1.637,6.645-2.166c2.435-0.496,4.799-0.691,6.951-0.703
					c2.15,0.035,4.089,0.225,5.689,0.545C531.488,332.382,533.377,333.182,533.433,333.036z"/>
			</g>
		</g>
	</g>
</g>
<g id="Newletter">
	<g>
		<g>
			<g>
				<g>
					<g>
						<rect x="254.433" y="114.055" fill="#FAFAFA" width="252.736" height="277.126"/>
					</g>
				</g>
				<g>
					<g>
						<g>
							<path fill="#263238" d="M507.168,391.181c-0.002-1.972-0.092-111.516-0.229-277.126l0.229,0.229
								c-74.11,0.009-160.672,0.02-252.71,0.032h-0.025l0.26-0.26c-0.014,101.973-0.027,197.208-0.039,277.126l-0.222-0.222
								C406.416,391.092,505.294,391.179,507.168,391.181c-1.872,0.001-100.753,0.088-252.736,0.222h-0.222v-0.222
								c-0.011-79.919-0.024-175.154-0.039-277.126v-0.26h0.26h0.025c92.039,0.011,178.6,0.022,252.71,0.032h0.229v0.229
								C507.26,279.666,507.17,389.211,507.168,391.181z"/>
						</g>
					</g>
				</g>
			</g>
			<g>
				<g>
					<path fill="#E8505B" d="M428.342,239.368"/>
				</g>
			</g>
			<g>
				<g>
					<g>
						<path fill="#263238" d="M454.347,312.545c0,0.145-32.141,0.261-71.779,0.261c-39.653,0-71.787-0.116-71.787-0.261
							c0-0.144,32.134-0.26,71.787-0.26C422.207,312.286,454.347,312.402,454.347,312.545z"/>
					</g>
				</g>
			</g>
			<g>
				<g>
					<g>
						<path fill="#263238" d="M476.808,321.23c0,0.145-42.198,0.261-94.239,0.261c-52.06,0-94.249-0.116-94.249-0.261
							c0-0.144,42.189-0.26,94.249-0.26C434.61,320.97,476.808,321.086,476.808,321.23z"/>
					</g>
				</g>
			</g>
		</g>
		<g>
			<circle fill="#E0E0E0" cx="264.174" cy="124.834" r="2.14"/>
		</g>
		<g>
			<circle fill="#E0E0E0" cx="271.308" cy="124.834" r="2.14"/>
		</g>
		<g>
			<circle fill="#E0E0E0" cx="278.442" cy="124.834" r="2.139"/>
		</g>
	</g>
</g>
<g id="Character">
	<g>
		<g>
			<path fill="#FFBE9D" d="M488.361,169.65l4.155-14.987c0,0,1.499-6.089,1.855-7.512c0.473-1.882-0.848-2.474-1.626-1.194
				c-0.296,0.486-3.585,6.687-3.585,6.687s2.622-10.15,2.717-10.519c0.849-3.314-1.203-2.971-1.805-1.786
				c-0.621,1.224-4.333,11.212-4.333,11.212c3.485-13.053,2.396-14.202,1.415-14.408s-4.054,11.729-4.054,11.729
				s-1.105-2.04-3.15-3.446c-3.153-2.168-8.406-0.003-8.659,1.481c-0.254,1.484,1.623,1.9,1.623,1.9
				c3.949-2.545,7.999,0.538,7.584,4.307c-0.414,3.769-5.187,3.245-5.781,0.563c-1.305-5.885-3.329-3.973-3.329-3.973l2.029,12.981
				l-2.149,6.528"/>
		</g>
		<g>
			<g>
				<g>
					<polygon fill="#455A64" points="338.663,230.741 428.513,230.141 430.982,291.229 337.946,290.312 					"/>
				</g>
			</g>
			<g>
				<g>
					<polyline fill="#263238" points="338.663,230.741 384.3,193.857 428.513,230.141 					"/>
				</g>
			</g>
			<g>
				<g>
					<g>
						
							<ellipse transform="matrix(-0.6844 0.7291 -0.7291 -0.6844 795.6832 201.5397)" fill="#263238" cx="354.224" cy="272.972" rx="23.784" ry="0.279"/>
					</g>
				</g>
			</g>
			<g>
				<g>
					<g>
						
							<ellipse transform="matrix(0.6638 0.7479 -0.7479 0.6638 344.5016 -218.7266)" fill="#263238" cx="415.555" cy="273.849" rx="23.239" ry="0.279"/>
					</g>
				</g>
			</g>
			<g>
				<g>
					<polyline fill="#263238" points="428.513,230.141 383.375,266.158 338.663,230.741 					"/>
				</g>
			</g>
		</g>
		<g>
			<g>
				<g>
					<g>
						<path fill="#FFBE9D" d="M278.624,161.896l0.299-0.008l-1.205-4.02l-3.849-15.362c-0.365-1.394,0.411-2.83,1.808-3.347
							l2.77-0.094l9.488-4.438c1.793-0.663,3.774,0.463,3.999,2.295c0.347,2.824,2.266,10.409,4.311,7.752
							c0.048-0.063,0.099-0.114,0.147-0.175c2.873-3.954,6.45-6.087,7.922-6.027c1.436,0.058,1.965,1.797,1.005,2.837
							c-0.142,0.178-0.312,0.344-0.542,0.469c-0.096,0.052-0.209,0.145-0.311,0.21c-1.115,0.895-2.44,2.486-3.415,3.747
							c-0.929,1.203-1.635,2.566-2.09,3.999c-0.507,1.594-0.883,2.99-1.167,4.174l0.737,7.841"/>
					</g>
				</g>
				<g>
					<g>
						<g>
							<g>
								<path fill="#455A64" d="M303.938,92.313c0,0-11.088-2.125-27.017-16.595c-15.928-14.471-23.776-34.065-25.671-33.915
									c-1.895,0.15-10.292-3.462-25.081,31.271c-14.789,34.733-8.354,42.519-5.22,42.366c3.135-0.153,24.263-6.692,37.608-5.558
									c13.345,1.135,30.639,7.582,30.639,7.582L303.938,92.313z"/>
							</g>
						</g>
						<g>
							<g>
								<path fill="#263238" d="M327.877,110.336l-3.557,7.254l-1.593,3.25c-2.185,4.457-7.477,6.424-12.042,4.476l-23.851-7.559
									l12.863-31.791l23.953,11.905C328.248,100.157,330.137,105.727,327.877,110.336z"/>
							</g>
						</g>
						<g>
							<g>
								<path fill="#263238" d="M314.584,122.167l-7.109,14.964l-3.793-0.939l-24.011,20.69l-7.25-13.252
									c0,0,14.347-6.668,16.887-11.924c2.539-5.255-0.598-6.342-0.598-6.342l6.616-7.962L314.584,122.167z"/>
							</g>
						</g>
						<g>
							<g>
								
									<ellipse transform="matrix(-0.9227 -0.3856 0.3856 -0.9227 422.1108 238.2366)" fill="#263238" cx="234.945" cy="76.79" rx="8.111" ry="36.915"/>
							</g>
						</g>
					</g>
					<g>
						<g>
							<polygon fill="#455A64" points="330.197,120.606 323.738,118.778 327.486,111.133 332.372,113.981 							"/>
						</g>
					</g>
					<g>
						<g>
							<polygon fill="#455A64" points="293.058,120.13 310.572,130.613 312.599,126.347 							"/>
						</g>
					</g>
					<g>
						<g>
							<polygon fill="#455A64" points="327.486,111.133 323.738,118.778 325.065,119.154 328.071,111.474 							"/>
						</g>
					</g>
					<g>
						<g>
							
								<ellipse transform="matrix(0.9226 0.3858 -0.3858 0.9226 66.9326 -113.4287)" fill="#455A64" cx="316.069" cy="110.045" rx="7.648" ry="0.411"/>
						</g>
					</g>
					<g>
						<g>
							
								<ellipse transform="matrix(0.9093 0.4162 -0.4162 0.9093 72.8234 -123.0173)" fill="#455A64" cx="318.603" cy="105.542" rx="6.998" ry="0.412"/>
						</g>
					</g>
					<g>
						<g>
							<path fill="#455A64" d="M320.775,117.771c-0.031,0.11-0.796-0.044-2.02-0.384c-0.611-0.17-1.336-0.386-2.138-0.639
								c-0.797-0.264-1.628-0.655-2.518-1.028c-3.548-1.526-6.267-3.042-6.186-3.233c0.098-0.226,2.992,0.965,6.507,2.476
								c0.881,0.37,1.701,0.781,2.471,1.078c0.773,0.287,1.466,0.556,2.046,0.793C320.097,117.311,320.805,117.662,320.775,117.771z
								"/>
						</g>
					</g>
					<g>
						<g>
							<path fill="#455A64" d="M244.446,69.046c0,0-9.745-5.667-14.618,7.421c-4.872,13.087,5.264,14.929,5.264,14.929
								C239.034,84.885,242.176,77.462,244.446,69.046z"/>
						</g>
					</g>
					<g>
						<g>
							<path fill="#263238" d="M254.194,53.337c0.057,0.008-0.055,0.89-0.305,2.482c-0.258,1.59-0.621,3.897-1.155,6.732
								c-0.366,1.399-0.765,2.927-1.193,4.565c-0.217,0.821-0.442,1.669-0.673,2.543c-0.116,0.438-0.234,0.88-0.354,1.33
								c-0.13,0.446-0.305,0.885-0.458,1.336c-0.639,1.8-1.31,3.688-2.005,5.645c-0.175,0.489-0.351,0.982-0.529,1.48
								c-0.172,0.5-0.422,0.972-0.632,1.465c-0.441,0.979-0.887,1.971-1.34,2.976c-0.454,1.004-0.902,1.996-1.345,2.975
								c-0.23,0.484-0.42,0.984-0.68,1.444c-0.256,0.462-0.509,0.922-0.76,1.376c-1.007,1.816-1.979,3.569-2.905,5.24
								c-0.237,0.415-0.451,0.835-0.699,1.229c-0.258,0.388-0.513,0.77-0.764,1.147c-0.503,0.753-0.992,1.483-1.464,2.191
								c-0.946,1.406-1.829,2.719-2.637,3.92c-1.768,2.271-3.254,4.064-4.275,5.31c-1.027,1.24-1.616,1.908-1.661,1.874
								c-0.045-0.035,0.459-0.771,1.408-2.07c0.985-1.325,2.368-3.185,4.067-5.469c0.776-1.21,1.624-2.531,2.533-3.948
								c0.457-0.708,0.929-1.439,1.416-2.193c0.244-0.376,0.491-0.758,0.742-1.146c0.241-0.393,0.449-0.814,0.68-1.229
								c0.907-1.667,1.858-3.416,2.844-5.228c0.248-0.453,0.497-0.91,0.749-1.37c0.256-0.458,0.443-0.956,0.671-1.437
								c0.438-0.972,0.882-1.958,1.331-2.956c0.451-0.997,0.896-1.982,1.335-2.953c0.21-0.489,0.46-0.958,0.633-1.453
								c0.179-0.493,0.355-0.982,0.531-1.467c0.706-1.938,1.388-3.807,2.037-5.59c0.158-0.447,0.336-0.881,0.472-1.322
								c0.124-0.445,0.247-0.883,0.368-1.316c0.243-0.864,0.479-1.704,0.708-2.516c0.46-1.62,0.89-3.132,1.284-4.516
								c0.587-2.779,1.065-5.042,1.406-6.654C253.919,54.195,254.138,53.329,254.194,53.337z"/>
						</g>
					</g>
				</g>
			</g>
			<g>
				<path fill="#E8505B" d="M422.617,220.264"/>
			</g>
		</g>
		<g>
			<g>
				<g>
					<path fill="#E8505B" d="M347.591,207.81"/>
				</g>
			</g>
			<g>
				<g>
					<path fill="#E8505B" d="M311.777,196.273l-9.915-37.673l-24.778,0.656l7.707,52.57c0.985,11.44,7.716,18.929,19.053,20.746
						c6.797,1.089,14.162-5.391,19.621-9.583c3.564-2.737,4.198-2.195,7.875-5.538l0,0l15.961-11.538l0.391,1.894l-0.102,0.004
						l2.712,32.122l33.057,25.957l39.431-31.593l-0.9-13.665c0.098-0.011,0.194-0.201-0.013-0.197l-1.021-15.485l20.199,23.17
						c4.649,6.789,12.564,10.586,20.771,9.964c8.871-0.672,16.563-6.388,19.769-14.687l10.408-52.958l-22.839-4.915l-10.697,38.161
						l-25.52-29.328c-14.715-19.174-31.897-17.553-31.897-17.553l-31.676-0.562c-0.024,0-0.047,0-0.071,0.001
						c-0.94,0.05-18.643,0.585-30.64,13.406L311.777,196.273z"/>
				</g>
			</g>
			<g>
				<g>
					<g>
						<path fill="#FAFAFA" d="M434.234,176.448c-0.015,0.031-0.342-0.162-1.019-0.373c-0.671-0.218-1.715-0.42-3.056-0.316
							c-1.339,0.109-2.95,0.539-4.687,1.344c-1.752,0.777-3.563,2.015-5.674,3.229c-2.092,1.177-4.605,2.468-7.569,2.4
							c-1.464-0.049-2.934-0.454-4.356-1.014c-1.428-0.559-2.832-1.252-4.311-1.837c-2.929-1.197-6.357-1.598-9.735-0.924
							c-3.401,0.649-6.519,2.558-9.71,4.409c-1.607,0.922-3.229,1.808-4.933,2.468c-1.699,0.664-3.466,1.086-5.222,1.27
							c-3.513,0.376-6.986-0.145-9.985-1.385c-3.013-1.226-5.539-3.014-7.851-4.675c-2.311-1.673-4.437-3.265-6.524-4.473
							c-2.089-1.201-4.133-2.009-5.988-2.468c-1.86-0.443-3.523-0.538-4.86-0.404c-2.695,0.293-3.981,1.228-4.008,1.137
							c-0.004-0.008,0.076-0.057,0.236-0.145c0.162-0.086,0.4-0.222,0.724-0.376c0.66-0.274,1.664-0.656,3.026-0.817
							c1.357-0.167,3.053-0.101,4.949,0.323c1.892,0.439,3.975,1.234,6.104,2.432c2.127,1.204,4.275,2.787,6.593,4.442
							c2.318,1.643,4.829,3.396,7.779,4.581c2.932,1.199,6.323,1.697,9.75,1.323c1.713-0.183,3.434-0.597,5.09-1.246
							c1.661-0.645,3.26-1.518,4.86-2.436c3.177-1.84,6.353-3.792,9.871-4.458c3.478-0.688,7.015-0.261,10.011,0.979
							c2.973,1.214,5.675,2.777,8.505,2.866c2.818,0.086,5.285-1.138,7.374-2.289c2.103-1.181,3.945-2.409,5.735-3.174
							c1.771-0.792,3.422-1.201,4.791-1.281c1.373-0.076,2.434,0.166,3.104,0.418C433.925,176.223,434.234,176.448,434.234,176.448z
							"/>
					</g>
				</g>
			</g>
			<g>
				<g>
					<g>
						<path fill="#FAFAFA" d="M452.603,195.214c0,0-0.093,0.515-0.541,1.394c-0.45,0.868-1.323,2.091-2.869,3.167
							c-1.521,1.085-3.714,2.001-6.368,2.255c-2.651,0.299-5.679-0.019-8.971-0.395c-3.268-0.332-6.989-0.735-10.676,0.479
							c-1.826,0.617-3.557,1.656-5.295,2.784c-1.742,1.121-3.525,2.36-5.572,3.239c-4.058,1.787-8.87,2.458-13.631,1.594
							c-2.381-0.404-4.73-1.247-6.923-2.427c-2.196-1.179-4.244-2.642-6.364-4.013c-2.12-1.359-4.283-2.638-6.62-3.325
							c-2.327-0.698-4.77-0.777-7.107-0.443c-4.699,0.683-8.964,2.573-13.217,3.724c-2.12,0.602-4.259,1.023-6.368,1.067
							c-2.098,0.035-4.176-0.256-6.012-1.016c-3.691-1.521-6.406-4.114-8.822-6.359c-2.407-2.284-4.627-4.315-6.881-5.665
							c-2.23-1.384-4.462-1.997-6.292-2.146c-1.842-0.15-3.271,0.18-4.181,0.504c-0.912,0.339-1.344,0.628-1.361,0.597
							c0,0,0.412-0.32,1.324-0.695c0.909-0.36,2.356-0.73,4.232-0.608c1.862,0.12,4.147,0.717,6.428,2.099
							c2.301,1.346,4.562,3.381,6.982,5.646c2.428,2.227,5.136,4.77,8.731,6.228c1.785,0.728,3.795,1,5.84,0.958
							c2.054-0.05,4.153-0.469,6.251-1.072c2.104-0.592,4.226-1.335,6.418-2.044c2.19-0.704,4.46-1.393,6.857-1.723
							c2.386-0.345,4.919-0.27,7.327,0.452c2.416,0.71,4.619,2.017,6.754,3.384c2.133,1.38,4.17,2.834,6.326,3.994
							c2.15,1.158,4.437,1.981,6.769,2.38c4.655,0.853,9.372,0.205,13.347-1.531c3.979-1.737,7.104-4.752,10.923-5.993
							c1.887-0.629,3.813-0.809,5.636-0.809c1.828,0.003,3.568,0.184,5.22,0.374c3.294,0.4,6.286,0.739,8.899,0.471
							c2.616-0.223,4.767-1.092,6.282-2.132c1.535-1.031,2.418-2.21,2.893-3.05C452.442,195.707,452.57,195.202,452.603,195.214z"/>
					</g>
				</g>
			</g>
			<g>
				<g>
					<g>
						<path fill="#FAFAFA" d="M481.497,220.67c-0.044,0.042-0.393-0.541-1.384-1.134c-0.972-0.587-2.672-1.064-4.697-0.702
							c-2.032,0.354-4.178,1.675-6.326,3.379c-1.088,0.843-2.218,1.77-3.494,2.6c-1.271,0.825-2.718,1.571-4.339,1.87
							c-1.615,0.32-3.236,0.172-4.724-0.129c-1.495-0.31-2.883-0.773-4.192-1.221c-1.31-0.448-2.54-0.895-3.717-1.202
							c-1.179-0.306-2.3-0.494-3.329-0.563c-2.061-0.146-3.735,0.236-4.759,0.761c-1.036,0.51-1.496,0.987-1.534,0.94
							c-0.013-0.013,0.1-0.129,0.327-0.341c0.11-0.112,0.26-0.232,0.448-0.36c0.182-0.139,0.401-0.284,0.666-0.419
							c1.025-0.598,2.754-1.053,4.872-0.949c1.059,0.047,2.209,0.219,3.414,0.512c1.208,0.297,2.456,0.732,3.766,1.167
							c2.59,0.842,5.57,1.868,8.664,1.293c1.528-0.281,2.914-0.987,4.159-1.787c1.251-0.805,2.376-1.713,3.479-2.552
							c2.178-1.694,4.416-3.039,6.557-3.362c2.126-0.332,3.888,0.228,4.866,0.892c0.505,0.322,0.813,0.677,1.019,0.907
							C481.423,220.524,481.511,220.66,481.497,220.67z"/>
					</g>
				</g>
			</g>
			<g>
				<g>
					<g>
						<path fill="#FAFAFA" d="M486.518,191.931c0.014,0.02-0.266,0.256-0.859,0.539c-0.59,0.283-1.512,0.577-2.687,0.679
							c-1.172,0.1-2.583-0.009-4.089-0.368c-1.511-0.355-3.092-0.962-4.739-1.578c-1.646-0.615-3.227-1.158-4.707-1.406
							c-1.479-0.251-2.849-0.226-3.96-0.015c-2.257,0.422-3.299,1.546-3.354,1.447c-0.017-0.016,0.207-0.307,0.738-0.697
							c0.526-0.39,1.39-0.841,2.541-1.111c1.148-0.268,2.573-0.333,4.111-0.099c1.542,0.232,3.159,0.774,4.813,1.392
							c1.652,0.619,3.21,1.23,4.671,1.6c1.459,0.374,2.818,0.517,3.951,0.466C485.242,192.688,486.481,191.83,486.518,191.931z"/>
					</g>
				</g>
			</g>
			<g>
				<g>
					<g>
						<path fill="#FAFAFA" d="M420.212,229.728c-0.031,0.055-0.877-0.562-2.617-1.199c-1.734-0.617-4.424-1.152-7.721-0.797
							c-3.304,0.29-7.079,1.588-11.026,3.501c-3.967,1.867-8.169,4.37-13.057,5.953c-2.436,0.785-4.929,1.269-7.361,1.271
							c-2.434-0.008-4.752-0.498-6.858-1.181c-2.114-0.678-4.041-1.525-5.832-2.319c-1.793-0.791-3.449-1.554-4.994-2.16
							c-3.074-1.261-5.717-1.833-7.562-1.974c-0.461-0.026-0.873-0.066-1.229-0.075c-0.343,0.011-0.643,0.021-0.903,0.029
							c-0.489,0.013-0.748,0.01-0.75-0.007c-0.002-0.018,0.253-0.051,0.743-0.097c0.261-0.023,0.563-0.049,0.908-0.08
							c0.36-0.008,0.775,0.017,1.244,0.027c1.869,0.079,4.569,0.607,7.682,1.833c1.565,0.589,3.234,1.335,5.033,2.107
							c1.796,0.776,3.716,1.603,5.804,2.258c2.082,0.661,4.345,1.126,6.71,1.128c2.367-0.009,4.806-0.484,7.204-1.257
							c4.813-1.556,9.008-4.033,13.01-5.891c3.979-1.899,7.834-3.187,11.198-3.434c3.356-0.313,6.089,0.289,7.825,0.974
							C419.411,229.046,420.212,229.728,420.212,229.728z"/>
					</g>
				</g>
			</g>
			<g>
				<g>
					<g>
						<path fill="#FAFAFA" d="M283.638,204.173c0,0,0.141-0.126,0.476-0.227c0.332-0.1,0.875-0.144,1.512,0.061
							c0.634,0.2,1.359,0.635,1.971,1.365c0.607,0.728,1.071,1.697,1.585,2.723c0.503,1.033,1.209,2.065,2.212,2.944
							c0.994,0.886,2.28,1.56,3.7,2.045c2.872,0.96,6.271,1.018,9.738,0.466c3.477-0.508,6.808-1.215,9.914-1.192
							c3.111-0.049,5.884,0.887,7.84,2.174c1.997,1.271,3.119,2.933,3.575,4.154c0.461,1.235,0.418,1.976,0.418,1.976
							c-0.065,0.013-0.099-0.723-0.605-1.898c-0.501-1.164-1.625-2.728-3.585-3.921c-1.929-1.21-4.608-2.078-7.642-2.005
							c-3.039,0.002-6.333,0.714-9.841,1.228c-3.495,0.557-7.011,0.492-9.965-0.527c-1.466-0.515-2.801-1.232-3.832-2.176
							c-1.037-0.932-1.769-2.049-2.256-3.104c-0.499-1.05-0.927-1.997-1.482-2.705c-0.551-0.701-1.223-1.14-1.809-1.356
							C284.342,203.755,283.638,204.247,283.638,204.173z"/>
					</g>
				</g>
			</g>
			<g>
				<g>
					<g>
						<path fill="#FAFAFA" d="M305.33,173.622c-0.063,0.098-1.109-1.163-3.487-1.811c-1.172-0.318-2.637-0.463-4.235-0.278
							c-1.599,0.182-3.312,0.716-5.034,1.451c-1.725,0.74-3.314,1.583-4.788,2.309c-1.472,0.73-2.833,1.333-4.014,1.742
							c-1.182,0.409-2.173,0.634-2.864,0.733c-0.692,0.101-1.08,0.096-1.083,0.067c-0.014-0.09,1.526-0.239,3.818-1.146
							c1.146-0.447,2.473-1.076,3.926-1.826c1.455-0.745,3.045-1.607,4.799-2.36c1.753-0.747,3.52-1.286,5.187-1.449
							c1.664-0.167,3.185,0.024,4.391,0.401c1.208,0.382,2.093,0.929,2.632,1.378C305.121,173.286,305.347,173.607,305.33,173.622z"
							/>
					</g>
				</g>
			</g>
			<g opacity="0.3">
				<g>
					<g>
						<path d="M377.738,261.474c12.835-7.443,27.695-16.172,35.106-29.027c4.738-8.221,7.093-18.053,8.013-27.498l1.934,29.347
							l-39.431,31.593L377.738,261.474z"/>
					</g>
				</g>
			</g>
			<g opacity="0.2">
				<g>
					<g>
						<path d="M344.465,164.384c-3.028,11.26-8.833,20.962-17.629,28.617c-2.123,1.847-4.429,3.57-7.092,4.482
							c-2.663,0.911-5.75,0.918-8.159-0.538l0.192-0.672l19.983-19.788L344.465,164.384z"/>
					</g>
				</g>
			</g>
			<g>
				<g>
					<g>
						<path fill="#263238" d="M314.321,212.013c-0.085-0.032,0.241-0.909,0.51-2.373c0.273-1.461,0.413-3.532,0.049-5.77
							c-0.375-2.237-1.172-4.154-1.9-5.449c-0.725-1.3-1.316-2.025-1.246-2.083c0.038-0.037,0.735,0.61,1.563,1.895
							c0.828,1.277,1.711,3.241,2.097,5.552c0.377,2.312,0.171,4.455-0.202,5.931C314.821,211.199,314.369,212.035,314.321,212.013z
							"/>
					</g>
				</g>
			</g>
			<g>
				<g>
					<g>
						<path fill="#263238" d="M308.595,206.972c-0.133-0.1,1.606-1.923,2.382-4.818c0.823-2.883,0.269-5.34,0.434-5.358
							c0.059-0.015,0.282,0.573,0.399,1.578c0.119,1,0.081,2.423-0.331,3.919c-0.416,1.494-1.114,2.734-1.731,3.531
							C309.131,206.625,308.638,207.015,308.595,206.972z"/>
					</g>
				</g>
			</g>
			<g>
				<g>
					<g>
						
							<ellipse transform="matrix(-0.0879 -0.9961 0.9961 -0.0879 174.5877 568.0997)" fill="#263238" cx="347.369" cy="204.124" rx="17.896" ry="0.261"/>
					</g>
				</g>
			</g>
			<g>
				<g>
					<g>
						<path fill="#263238" d="M399.184,155.66c0.017-0.006,0.09,0.179,0.215,0.539c0.141,0.355,0.283,0.897,0.436,1.606
							c0.291,1.414,0.439,3.554-0.096,6.108c-0.561,2.522-1.861,5.488-4.361,7.906c-2.463,2.443-6.204,4.012-10.193,4.109
							c-3.99,0.078-7.798-1.326-10.366-3.66c-2.604-2.307-4.032-5.213-4.703-7.708c-0.646-2.528-0.591-4.672-0.362-6.097
							c0.122-0.715,0.241-1.263,0.365-1.624c0.109-0.365,0.174-0.553,0.191-0.547c0.063,0.016-0.194,0.776-0.355,2.197
							c-0.165,1.414-0.16,3.516,0.516,5.974c0.7,2.427,2.129,5.235,4.664,7.445c2.495,2.233,6.171,3.573,10.039,3.5
							c3.864-0.096,7.479-1.595,9.873-3.935c2.435-2.318,3.74-5.186,4.334-7.641c0.567-2.485,0.48-4.585,0.255-5.991
							C399.413,156.427,399.123,155.679,399.184,155.66z"/>
					</g>
				</g>
			</g>
			<g>
				<g>
					<g>
						<path fill="#263238" d="M457.278,215.904c-0.137,0.007-0.365-2.807-0.164-6.276c0.192-3.471,0.739-6.24,0.874-6.218
							c0.149,0.022-0.163,2.805-0.354,6.247C457.433,213.099,457.428,215.899,457.278,215.904z"/>
					</g>
				</g>
			</g>
			<g>
				<g>
					<g>
						<path fill="#263238" d="M461.293,217.722c-0.063,0.022-0.411-0.75-0.854-2.041c-0.443-1.291-0.969-3.107-1.392-5.149
							c-0.421-2.043-0.66-3.919-0.765-5.28c-0.104-1.362-0.092-2.208-0.024-2.212c0.155-0.011,0.454,3.339,1.299,7.387
							C460.386,214.477,461.441,217.671,461.293,217.722z"/>
					</g>
				</g>
			</g>
			<g>
				<g>
					<g>
						
							<ellipse transform="matrix(0.0375 0.9993 -0.9993 0.0375 610.1741 -222.0998)" fill="#263238" cx="420.383" cy="205.703" rx="12.602" ry="0.261"/>
					</g>
				</g>
			</g>
		</g>
		<g>
			<g>
				<g>
					<g>
						<g>
							<g>
								<g>
									<g>
										<g>
											<g>
												<path fill="#FFBE9D" d="M385.012,174.358L385.012,174.358c-7.496-0.141-13.586-6.094-13.9-13.585
													c-0.23-5.48-0.418-10.512-0.418-10.512s-11.47-1.218-12.163-12.593c-0.692-11.375,0.014-37.607,0.014-37.607l0,0
													c12.901-6.301,28.202-5.127,39.99,3.069l1.75,1.217l-0.832,56.046C399.337,168.244,392.862,174.505,385.012,174.358z"/>
											</g>
										</g>
									</g>
								</g>
							</g>
							<g>
								<g>
									<g>
										<g>
											<g>
												<path fill="#EB996E" d="M370.667,150.098c0,0,7.222,0.236,14.634-4.937c0,0-3.11,8.361-14.517,7.887L370.667,150.098z"
													/>
											</g>
										</g>
									</g>
								</g>
							</g>
						</g>
					</g>
				</g>
				<g>
					<g>
						<g>
							<g>
								<g>
									<g>
										<path fill="#FFBE9D" d="M399.455,116.205c0.19-0.093,7.709-2.692,7.837,5.102c0.129,7.793-7.722,6.315-7.739,6.092
											C399.536,127.174,399.455,116.205,399.455,116.205z"/>
									</g>
								</g>
							</g>
						</g>
					</g>
					<g>
						<g>
							<g>
								<g>
									<g>
										<g>
											<path fill="#EB996E" d="M401.884,124.406c0.034-0.025,0.138,0.093,0.368,0.194c0.226,0.099,0.611,0.163,1.016,0.004
												c0.818-0.315,1.49-1.634,1.505-3.04c0.008-0.709-0.152-1.383-0.412-1.938c-0.248-0.566-0.623-0.958-1.039-1.025
												c-0.414-0.088-0.703,0.165-0.795,0.385c-0.101,0.22-0.049,0.375-0.09,0.389c-0.021,0.02-0.169-0.128-0.112-0.451
												c0.03-0.155,0.118-0.341,0.299-0.494c0.185-0.155,0.458-0.237,0.748-0.211c0.602,0.032,1.151,0.576,1.438,1.185
												c0.32,0.612,0.516,1.368,0.507,2.165c-0.023,1.571-0.804,3.054-1.925,3.398c-0.546,0.152-1.006-0.005-1.245-0.186
												C401.902,124.594,401.858,124.42,401.884,124.406z"/>
										</g>
									</g>
								</g>
							</g>
						</g>
					</g>
				</g>
				<g>
					<g>
						<g>
							<g>
								<g>
									<g>
										<g>
											<g>
												<g>
													<g>
														<g>
															<path fill="#263238" d="M363.988,117.273c-0.031,0.859,0.672,1.593,1.569,1.642c0.896,0.048,1.647-0.608,1.678-1.467
																c0.03-0.859-0.672-1.595-1.568-1.643C364.77,115.756,364.018,116.414,363.988,117.273z"/>
														</g>
													</g>
												</g>
											</g>
										</g>
										<g>
											<g>
												<g>
													<g>
														<g>
															<g>
																<path fill="#263238" d="M362.008,115.643c0.202,0.212,1.435-0.7,3.186-0.695c1.75-0.021,3.035,0.88,3.225,0.666
																	c0.093-0.095-0.112-0.478-0.672-0.885c-0.551-0.406-1.49-0.8-2.581-0.795c-1.091,0.006-2.008,0.407-2.536,0.818
																	C362.091,115.164,361.909,115.548,362.008,115.643z"/>
															</g>
														</g>
													</g>
												</g>
											</g>
										</g>
									</g>
									<g>
										<g>
											<g>
												<g>
													<g>
														<g>
															<path fill="#263238" d="M380.801,117.473c-0.03,0.859,0.673,1.594,1.569,1.642c0.896,0.048,1.647-0.607,1.678-1.467
																c0.03-0.859-0.673-1.594-1.567-1.643C381.583,115.956,380.832,116.613,380.801,117.473z"/>
														</g>
													</g>
												</g>
											</g>
										</g>
										<g>
											<g>
												<g>
													<g>
														<g>
															<g>
																<path fill="#263238" d="M379.221,115.97c0.202,0.212,1.437-0.7,3.187-0.695c1.749-0.021,3.034,0.88,3.225,0.666
																	c0.093-0.095-0.11-0.478-0.672-0.885c-0.551-0.406-1.49-0.8-2.581-0.796c-1.091,0.006-2.009,0.408-2.536,0.818
																	C379.306,115.491,379.123,115.875,379.221,115.97z"/>
															</g>
														</g>
													</g>
												</g>
											</g>
										</g>
									</g>
									<g>
										<g>
											<g>
												<g>
													<g>
														<g>
															<path fill="#263238" d="M372.866,128.957c0.008-0.1-1.081-0.287-2.844-0.513c-0.447-0.046-0.87-0.135-0.946-0.44
																c-0.105-0.323,0.082-0.805,0.298-1.325c0.421-1.083,0.861-2.217,1.323-3.405c1.836-4.848,3.166-8.834,2.97-8.907
																s-1.843,3.799-3.68,8.647c-0.442,1.195-0.865,2.335-1.267,3.425c-0.169,0.508-0.46,1.084-0.231,1.755
																c0.12,0.334,0.448,0.577,0.735,0.654c0.287,0.087,0.539,0.092,0.759,0.105
																C371.758,129.048,372.859,129.056,372.866,128.957z"/>
														</g>
													</g>
												</g>
											</g>
										</g>
									</g>
									<g>
										<g>
											<g>
												<g>
													<g>
														<g>
															<path fill="#263238" d="M378.02,130.168c-0.285-0.017-0.289,1.884-1.916,3.233c-1.624,1.354-3.65,1.14-3.665,1.406
																c-0.027,0.12,0.451,0.369,1.306,0.393c0.839,0.029,2.064-0.241,3.06-1.066c0.992-0.828,1.419-1.932,1.484-2.711
																C378.362,130.628,378.15,130.157,378.02,130.168z"/>
														</g>
													</g>
												</g>
											</g>
										</g>
									</g>
								</g>
							</g>
						</g>
						<g>
							<g>
								<g>
									<g>
										<g>
											<path fill="#263238" d="M378.769,109.107c0.173,0.476,1.922,0.25,3.976,0.499c2.06,0.206,3.717,0.808,3.989,0.38
												c0.122-0.204-0.167-0.652-0.837-1.113c-0.664-0.46-1.724-0.898-2.957-1.035c-1.233-0.135-2.362,0.061-3.111,0.365
												C379.075,108.507,378.695,108.881,378.769,109.107z"/>
										</g>
									</g>
								</g>
							</g>
						</g>
						<g>
							<g>
								<g>
									<g>
										<g>
											<path fill="#263238" d="M362.652,110.575c0.308,0.397,1.515-0.015,2.965-0.035c1.45-0.07,2.679,0.267,2.962-0.149
												c0.124-0.202-0.07-0.6-0.606-0.977c-0.529-0.375-1.414-0.682-2.411-0.652c-0.997,0.031-1.86,0.392-2.365,0.799
												C362.685,109.971,362.516,110.381,362.652,110.575z"/>
										</g>
									</g>
								</g>
							</g>
						</g>
					</g>
				</g>
			</g>
			<g>
				<g>
					<g>
						<path fill="#263238" d="M352.732,92.543c-0.122-1.412,0.404-2.928,1.553-3.758s2.932-0.777,3.866,0.289
							c-0.535-1.903,1.021-4.097,2.993-4.223c1.858-0.118,3.443,1.286,5.239,1.778c1.753,0.481,3.634,0.065,5.321-0.614
							c1.686-0.679,3.262-1.616,4.97-2.24c3.561-1.301,7.633-1.137,11.078,0.445c3.446,1.582,6.225,4.563,7.56,8.112
							c2.491-0.779,5.323,0.486,6.86,2.597c1.536,2.111,1.931,4.884,1.625,7.477c-0.206,1.752-0.713,3.445-1.303,5.113
							c0.001,0.146,0.015,0.29,0.012,0.438c-0.117,6.266-0.826,13.625-3.499,13.666c-4.659,0.071-3.55-8.708-3.55-8.708
							c-5.718-2.209-3.588-10.777-5.018-12.076c-1.43-1.3-4.421-4.32-16.393,1.799c-4.649,2.376-10.83,2.302-14.204,1.537
							c-0.099-0.021-0.2-0.037-0.298-0.061c-0.021-0.005-0.049-0.009-0.069-0.014c-0.037-0.009-0.063-0.029-0.099-0.04
							c-1.076-0.28-2.113-0.697-3.07-1.303c-1.084-0.686-2.071-1.615-2.53-2.813s-0.287-2.694,0.653-3.567
							C353.546,95.268,352.854,93.956,352.732,92.543z"/>
					</g>
				</g>
			</g>
		</g>
	</g>
</g>
</svg>
