<svg xmlns="http://www.w3.org/2000/svg" xmlns:xlink="http://www.w3.org/1999/xlink" width="178.043" height="155.907" viewBox="0 0 178.043 155.907"><defs><linearGradient id="a" x1="0.476" y1="0.5" x2="0.5" y2="1" gradientUnits="objectBoundingBox"><stop offset="0" stop-color="#f8e5b1"/><stop offset="1" stop-color="#d2c6a7"/></linearGradient><filter id="b" x="21.195" y="47.899" width="115.094" height="91.847" filterUnits="userSpaceOnUse"><feOffset dx="10" dy="10" input="SourceAlpha"/><feGaussianBlur stdDeviation="3" result="c"/><feFlood flood-opacity="0.161"/><feComposite operator="in" in2="c"/><feComposite in="SourceGraphic"/></filter><linearGradient id="d" x1="0.704" x2="0.556" y2="0.962" gradientUnits="objectBoundingBox"><stop offset="0" stop-color="#e1d0a1"/><stop offset="0.301" stop-color="#e2d1a1"/><stop offset="0.678" stop-color="#e2d1a1"/><stop offset="1" stop-color="#b9ae93"/></linearGradient><filter id="e" x="56.4" y="48.785" width="95.371" height="64.799" filterUnits="userSpaceOnUse"><feOffset dx="10" dy="10" input="SourceAlpha"/><feGaussianBlur stdDeviation="3" result="f"/><feFlood flood-opacity="0.161"/><feComposite operator="in" in2="f"/><feComposite in="SourceGraphic"/></filter><radialGradient id="g" cx="0.5" cy="0.5" r="0.461" gradientTransform="matrix(1.739, -0.059, 0.177, 1.739, -0.458, -0.34)" gradientUnits="objectBoundingBox"><stop offset="0" stop-color="#81b9eb"/><stop offset="0.632" stop-color="#2d6da7"/><stop offset="1" stop-color="#216eb1"/></radialGradient><filter id="h" x="0" y="30.022" width="72.561" height="77.284" filterUnits="userSpaceOnUse"><feOffset dx="10" dy="10" input="SourceAlpha"/><feGaussianBlur stdDeviation="5" result="i"/><feFlood flood-opacity="0.161"/><feComposite operator="in" in2="i"/><feComposite in="SourceGraphic"/></filter><radialGradient id="j" cx="0.5" cy="0.5" r="0.64" gradientTransform="matrix(1.74, 0.036, -0.108, 1.74, -0.316, -0.388)" gradientUnits="objectBoundingBox"><stop offset="0" stop-color="#6fd283"/><stop offset="1" stop-color="#386942"/></radialGradient><filter id="k" x="107.465" y="36.526" width="70.578" height="77.402" filterUnits="userSpaceOnUse"><feOffset dx="10" dy="10" input="SourceAlpha"/><feGaussianBlur stdDeviation="5" result="l"/><feFlood flood-opacity="0.161"/><feComposite operator="in" in2="l"/><feComposite in="SourceGraphic"/></filter></defs><g transform="translate(1.105)"><g transform="translate(3.895 35.023)"><line x2="19.753" y2="12.044" transform="translate(65.122 68.046)" fill="none"/><g transform="translate(0 0)"><g transform="matrix(1, 0, 0, 1, -5, -35.02)" filter="url(#b)"><path d="M18929.742,8045.578c-4.92-3.7-7.754-3.434-15.043-4.224s-12.5-1.389-12.5-1.389l-17.359,25.694s1.965,5.739,12.727,15.981,17.477,15.625,32.176,22.685,19.563,9.538,22.225,8.091,0-5.787,0-5.787,7.119,1.273,9.49,0,0-5.092,0-5.092,6.77.81,9.027-1.158,0-6.712,0-6.712,8.045.058,9.953-2.315-2.312-7.176-2.312-7.176l-40.74-29.4A29.257,29.257,0,0,0,18929.742,8045.578Z" transform="translate(-18863.64 -7992.07)" fill="url(#a)"/></g><line x2="27.782" y2="18.95" transform="translate(74.757 47.329)" fill="none"/><line x2="23.768" y2="15.417" transform="translate(70.903 60.337)" fill="none"/><g transform="matrix(1, 0, 0, 1, -5, -35.02)" filter="url(#e)"><path d="M19099.664,7859.135s1.969.216-4.137-1.737-7.656-9.395-20.283-6.075-32.191,21.091-32.191,21.091-5.416,5.623,1.584,7.171,25.781-7.171,25.781-7.171l32.021,23.866,14.986-7.771Z" transform="translate(-18984.65 -7801.7)" fill="url(#d)"/></g><g transform="matrix(1, 0, 0, 1, -5, -35.02)" filter="url(#h)"><rect width="23.607" height="41.112" transform="translate(27.99 35.02) rotate(34)" fill="url(#g)"/></g><g transform="matrix(1, 0, 0, 1, -5, -35.02)" filter="url(#k)"><rect width="23.607" height="41.112" transform="matrix(-0.87, 0.48, -0.48, -0.87, 153.04, 77.48)" fill="url(#j)"/></g><line x2="17.665" y2="11.884" transform="translate(66.407 68.046)" fill="none"/></g></g><rect width="155.907" height="155.907" transform="translate(0 0)" fill="none"/></g></svg>