<svg xmlns="http://www.w3.org/2000/svg" xmlns:xlink="http://www.w3.org/1999/xlink" width="164.141" height="155.907" viewBox="0 0 164.141 155.907"><defs><linearGradient id="a" x1="0.5" x2="0.5" y2="1" gradientUnits="objectBoundingBox"><stop offset="0" stop-color="#fffa74"/><stop offset="0.234" stop-color="#eae44a"/><stop offset="1" stop-color="#c8c006"/></linearGradient><filter id="b" x="5.59" y="0.592" width="158.551" height="155.005" filterUnits="userSpaceOnUse"><feOffset dx="10" dy="10" input="SourceAlpha"/><feGaussianBlur stdDeviation="5" result="c"/><feFlood flood-opacity="0.161"/><feComposite operator="in" in2="c"/><feComposite in="SourceGraphic"/></filter></defs><g transform="translate(10.589 5.593)"><g transform="matrix(1, 0, 0, 1, -10.59, -5.59)" filter="url(#b)"><path d="M16714.027,7974.523,16694.793,8014l-45.043,7.59,32.895,31.884-7.59,46.054,38.973-20.243,43.016,20.243-8.6-46.054,29.861-31.884-42.008-7.59Z" transform="translate(-16639.16 -7968.93)" fill="url(#a)"/></g><path d="M-.352.026,21.594,38.6-.352,65.454Z" transform="translate(64.743 0.439)" fill="#f8ef52"/><path d="M0,0,22.545,37.092.266,66.463Z" transform="translate(128.316 47.083) rotate(74)" fill="#f8ef52"/><path d="M0,0,23.457,40.741,1.135,72.758Z" transform="matrix(-0.819, 0.574, -0.574, -0.819, 107.107, 124.659)" fill="#f8ef52"/><path d="M0,0,19.051,41.867.591,70.568Z" transform="translate(25.424 124.492) rotate(-146)" fill="#f8ef52"/><path d="M0,0,20.631,39.937,2.158,66.6Z" transform="matrix(0.309, -0.951, 0.951, 0.309, 0.437, 47.233)" fill="#f8ef52"/></g><rect width="155.907" height="155.907" transform="translate(0 0)" fill="none"/></svg>