<svg xmlns="http://www.w3.org/2000/svg" xmlns:xlink="http://www.w3.org/1999/xlink" width="35" height="35" viewBox="0 0 140.574 140.575"><defs><filter id="a" x="9.746" y="20.992" width="121.976" height="105.376" filterUnits="userSpaceOnUse"><feOffset dx="3" dy="3" input="SourceAlpha"/><feGaussianBlur stdDeviation="1.5" result="b"/><feFlood flood-opacity="0.161"/><feComposite operator="in" in2="b"/><feComposite in="SourceGraphic"/></filter><filter id="c" x="9.748" y="24.736" width="115.908" height="68.218" filterUnits="userSpaceOnUse"><feOffset dy="5" input="SourceAlpha"/><feGaussianBlur stdDeviation="1.5" result="d"/><feFlood flood-opacity="0.161"/><feComposite operator="in" in2="d"/><feComposite in="SourceGraphic"/></filter></defs><g transform="translate(-10045 -6018)"><g transform="translate(10045 6018)"><rect width="140.575" height="140.575" transform="translate(0)" fill="none"/><g transform="translate(11.246 22.492)"><g transform="translate(0)"><g transform="matrix(1, 0, 0, 1, -11.25, -22.49)" filter="url(#a)"><g transform="translate(11.25 22.49)" fill="#fff" stroke="#cc7e25" stroke-width="8"><rect width="112.975" height="96.376" stroke="none"/><rect x="4" y="4" width="104.975" height="88.376" fill="none"/></g></g><g transform="matrix(1, 0, 0, 1, -11.25, -22.49)" filter="url(#c)"><g transform="translate(14.25 24.74)" fill="#fff"><path d="M 52.04428863525391 52.77590560913086 L 8.881035804748535 3.999998569488525 L 97.68663024902344 3.999998569488525 L 52.04428863525391 52.77590560913086 Z" stroke="none"/><path d="M 17.76206970214844 8 L 52.12688827514648 46.83338165283203 L 88.46546173095703 8 L 17.76206970214844 8 M 0 0 L 106.9078216552734 0 L 51.96169281005859 58.71843338012695 L 0 0 Z" stroke="none" fill="#cc7e25"/></g></g></g></g></g></g></svg>