<svg xmlns="http://www.w3.org/2000/svg" xmlns:xlink="http://www.w3.org/1999/xlink" width="135.219" height="106.62" viewBox="0 0 135.219 106.62"><defs><filter id="a" x="6.219" y="0" width="129" height="66" filterUnits="userSpaceOnUse"><feOffset dy="3" input="SourceAlpha"/><feGaussianBlur stdDeviation="3" result="b"/><feFlood flood-opacity="0.161"/><feComposite operator="in" in2="b"/><feComposite in="SourceGraphic"/></filter><linearGradient id="c" x1="0.543" y1="0.227" x2="0.5" y2="0.859" gradientUnits="objectBoundingBox"><stop offset="0" stop-color="#f2aa43"/><stop offset="0.285" stop-color="#d48719"/><stop offset="0.515" stop-color="#d48719"/><stop offset="1" stop-color="#945a06"/></linearGradient><filter id="d" x="0" y="30.36" width="59.704" height="76.26" filterUnits="userSpaceOnUse"><feOffset dx="10" dy="10" input="SourceAlpha"/><feGaussianBlur stdDeviation="5" result="e"/><feFlood flood-opacity="0.161"/><feComposite operator="in" in2="e"/><feComposite in="SourceGraphic"/></filter><linearGradient id="f" x1="0.574" y1="0.098" x2="0.5" y2="1" gradientUnits="objectBoundingBox"><stop offset="0" stop-color="#66e780"/><stop offset="0.136" stop-color="#5cd953"/><stop offset="1" stop-color="#0c8724"/></linearGradient><filter id="g" x="29.676" y="37.289" width="50.743" height="62.305" filterUnits="userSpaceOnUse"><feOffset dx="10" dy="10" input="SourceAlpha"/><feGaussianBlur stdDeviation="5" result="h"/><feFlood flood-opacity="0.161"/><feComposite operator="in" in2="h"/><feComposite in="SourceGraphic"/></filter></defs><g transform="translate(5 6)"><g transform="matrix(1, 0, 0, 1, -5, -6)" filter="url(#a)"><text transform="translate(15.22 26)" fill="#fff" font-size="21" font-family="ArialRoundedMTBold, Arial Rounded MT"><tspan x="0" y="0">Hola</tspan><tspan x="0" y="24" xml:space="preserve">        Mundo</tspan></text></g><g transform="matrix(1, 0, 0, 1, -5, -6)" filter="url(#d)"><path d="M15151.59,8088.514s1.8-14.656-2.344-25.629-6.607-15.068-13.225-19.131-15.662.768-13.389,6.826,12.332,6.9,18.74,15.153S15151.59,8088.514,15151.59,8088.514Z" transform="translate(-15117.28 -8006.89)" fill="url(#c)"/></g><g transform="matrix(1, 0, 0, 1, -5, -6)" filter="url(#g)"><path d="M15122.544,8074.56s-1.256-10.234,1.637-17.9,4.615-10.524,9.236-13.362,10.936.537,9.35,4.77-8.613,4.818-13.086,10.58S15122.544,8074.56,15122.544,8074.56Z" transform="translate(-15087.6 -7999.97)" fill="url(#f)"/></g></g></svg>