<svg xmlns="http://www.w3.org/2000/svg" xmlns:xlink="http://www.w3.org/1999/xlink" width="168.881" height="158.63" viewBox="0 0 168.881 158.63"><defs><linearGradient id="a" x1="0.543" y1="0.227" x2="0.5" y2="0.859" gradientUnits="objectBoundingBox"><stop offset="0" stop-color="#f2aa43"/><stop offset="0.285" stop-color="#d48719"/><stop offset="0.515" stop-color="#d48719"/><stop offset="1" stop-color="#945a06"/></linearGradient><filter id="b" x="4.166" y="16.571" width="98.742" height="137.051" filterUnits="userSpaceOnUse"><feOffset dx="10" dy="10" input="SourceAlpha"/><feGaussianBlur stdDeviation="5" result="c"/><feFlood flood-opacity="0.161"/><feComposite operator="in" in2="c"/><feComposite in="SourceGraphic"/></filter><linearGradient id="d" x1="0.461" y1="0.036" x2="0.5" y2="0.859" gradientUnits="objectBoundingBox"><stop offset="0" stop-color="#688dce"/><stop offset="0.146" stop-color="#4e7ebc"/><stop offset="0.41" stop-color="#296aa2"/><stop offset="1" stop-color="#05204e"/></linearGradient><filter id="e" x="70.139" y="12.216" width="98.742" height="137.052" filterUnits="userSpaceOnUse"><feOffset dx="10" dy="10" input="SourceAlpha"/><feGaussianBlur stdDeviation="5" result="f"/><feFlood flood-opacity="0.161"/><feComposite operator="in" in2="f"/><feComposite in="SourceGraphic"/></filter><linearGradient id="g" x1="0.574" y1="0.098" x2="0.5" y2="1" gradientUnits="objectBoundingBox"><stop offset="0" stop-color="#66e780"/><stop offset="0.136" stop-color="#5cd953"/><stop offset="1" stop-color="#0c8724"/></linearGradient><filter id="h" x="70.236" y="62.725" width="72.305" height="95.881" filterUnits="userSpaceOnUse"><feOffset dx="10" dy="10" input="SourceAlpha"/><feGaussianBlur stdDeviation="5" result="i"/><feFlood flood-opacity="0.161"/><feComposite operator="in" in2="i"/><feComposite in="SourceGraphic"/></filter><linearGradient id="j" x1="0.426" y1="0.098" x2="0.5" y2="1" gradientUnits="objectBoundingBox"><stop offset="0" stop-color="#e76697"/><stop offset="0.527" stop-color="#d95386"/><stop offset="1" stop-color="#aa124c"/></linearGradient><filter id="k" x="29.514" y="62.749" width="72.305" height="95.881" filterUnits="userSpaceOnUse"><feOffset dx="10" dy="10" input="SourceAlpha"/><feGaussianBlur stdDeviation="5" result="l"/><feFlood flood-opacity="0.161"/><feComposite operator="in" in2="l"/><feComposite in="SourceGraphic"/></filter></defs><g transform="translate(-16847.584 -7833.858)"><g transform="translate(16847.584 7833.858)"><g transform="matrix(1, 0, 0, 1, 0, 0)" filter="url(#b)"><path d="M15190.117,8149.306s4.168-33.918-5.426-59.308-15.293-34.872-30.605-44.272-36.24,1.777-30.983,15.8,28.543,15.975,43.369,35.066S15190.117,8149.306,15190.117,8149.306Z" transform="translate(-15113.11 -8020.68)" fill="url(#a)"/></g><g transform="matrix(1, 0, 0, 1, 0, 0)" filter="url(#e)"><path d="M15123.177,8149.308s-4.168-33.918,5.426-59.308,15.293-34.872,30.6-44.272,36.24,1.777,30.983,15.8-28.542,15.975-43.368,35.066S15123.177,8149.308,15123.177,8149.308Z" transform="translate(-15047.14 -8025.04)" fill="url(#d)"/></g><g transform="matrix(1, 0, 0, 1, 0, 0)" filter="url(#h)"><path d="M15122.826,8108.137s-2.564-20.874,3.34-36.5,9.412-21.46,18.835-27.246,22.3,1.093,19.067,9.721-17.566,9.831-26.689,21.58S15122.826,8108.137,15122.826,8108.137Z" transform="translate(-15047.04 -7974.53)" fill="url(#g)"/></g><g transform="matrix(1, 0, 0, 1, 0, 0)" filter="url(#k)"><path d="M15164.026,8108.137s2.565-20.874-3.339-36.5-9.412-21.46-18.835-27.246-22.3,1.093-19.067,9.721,17.565,9.831,26.689,21.58S15164.026,8108.137,15164.026,8108.137Z" transform="translate(-15087.76 -7974.51)" fill="url(#j)"/></g><path d="M10.992,0c6.071,0,10.992,2.227,10.992,4.974s-4.921,0-10.992,0S0,7.721,0,4.974,4.921,0,10.992,0Z" transform="translate(28.681 21.661) rotate(25)" fill="#fff"/><path d="M10.992,6.2c6.071,0,10.992-2.227,10.992-4.974s-4.921,0-10.992,0S0-1.526,0,1.221,4.921,6.2,10.992,6.2Z" transform="translate(126.559 25.197) rotate(155)" fill="#fff"/><path d="M7.608,4.288c4.2,0,7.608-1.541,7.608-3.443s-3.406,0-7.608,0S0-1.056,0,.845,3.406,4.288,7.608,4.288Z" transform="translate(108.603 71.54) rotate(155)" fill="#fff"/><path d="M7.608,0c4.2,0,7.608,1.541,7.608,3.443s-3.406,0-7.608,0S0,5.344,0,3.443,3.406,0,7.608,0Z" transform="translate(45.442 67.654) rotate(25)" fill="#fff"/><rect width="155.907" height="155.907" transform="translate(0 0)" fill="none"/></g></g></svg>