<svg xmlns="http://www.w3.org/2000/svg" xmlns:xlink="http://www.w3.org/1999/xlink" width="100" height="100" viewBox="0 0 100 100"><defs><filter id="a" x="20.331" y="40.417" width="16.848" height="19.721" filterUnits="userSpaceOnUse"><feOffset dy="1" input="SourceAlpha"/><feGaussianBlur stdDeviation="0.05" result="b"/><feFlood flood-opacity="0.161"/><feComposite operator="in" in2="b"/><feComposite in="SourceGraphic"/></filter><filter id="c" x="62.547" y="40.417" width="16.848" height="19.721" filterUnits="userSpaceOnUse"><feOffset dy="1" input="SourceAlpha"/><feGaussianBlur stdDeviation="0.05" result="d"/><feFlood flood-opacity="0.161"/><feComposite operator="in" in2="d"/><feComposite in="SourceGraphic"/></filter><filter id="e" x="41.716" y="33.929" width="16.041" height="33.126" filterUnits="userSpaceOnUse"><feOffset dy="1" input="SourceAlpha"/><feGaussianBlur stdDeviation="0.05" result="f"/><feFlood flood-opacity="0.161"/><feComposite operator="in" in2="f"/><feComposite in="SourceGraphic"/></filter></defs><g transform="translate(-10158.419 -6040.307)"><g transform="translate(10158.419 6040.307)"><circle cx="50" cy="50" r="50" transform="translate(0 0)" fill="#24a6ec"/><g transform="translate(20.481 33.929)"><path d="M0,0" transform="translate(2.034 16.338)" fill="none" stroke="#707070" stroke-width="1"/><g transform="matrix(1, 0, 0, 1, -20.48, -33.93)" filter="url(#a)"><path d="M28.231,25.426v2.738L15.85,34.891,28.231,41.2V44L11.684,35.843V34.414Z" transform="translate(8.8 14.99)" fill="#9df189"/></g><g transform="matrix(1, 0, 0, 1, -20.48, -33.93)" filter="url(#c)"><path d="M11.684,25.426v2.738l12.381,6.726L11.684,41.2V44l16.547-8.154V34.414Z" transform="translate(51.01 14.99)" fill="#9df189"/></g><g transform="matrix(1, 0, 0, 1, -20.48, -33.93)" filter="url(#e)"><path d="M42.114,20.97H39.207L26.374,52.946h2.907Z" transform="translate(15.49 12.96)" fill="#fff"/></g></g></g></g></svg>