<svg xmlns="http://www.w3.org/2000/svg" xmlns:xlink="http://www.w3.org/1999/xlink" width="35" height="35" viewBox="0 0 141.168 141.168"><defs><filter id="a" x="25.906" y="9.85" width="90.183" height="123.852" filterUnits="userSpaceOnUse"><feOffset dx="3" dy="3" input="SourceAlpha"/><feGaussianBlur stdDeviation="1.5" result="b"/><feFlood flood-opacity="0.161"/><feComposite operator="in" in2="b"/><feComposite in="SourceGraphic"/></filter><filter id="c" x="46.806" y="29.291" width="48.381" height="47.938" filterUnits="userSpaceOnUse"><feOffset dx="3" dy="3" input="SourceAlpha"/><feGaussianBlur stdDeviation="1.5" result="d"/><feFlood flood-opacity="0.161"/><feComposite operator="in" in2="d"/><feComposite in="SourceGraphic"/></filter></defs><g transform="translate(-11763 -5851)"><rect width="141.168" height="141.168" transform="translate(11763 5851)" fill="none"/><g transform="translate(11793.406 5865.362)"><g transform="matrix(1, 0, 0, 1, -30.41, -14.36)" filter="url(#a)"><path d="M12220.78,5527.833s37.786-43.884,37.786-70.278-22.7-37.942-41.134-36.952-34.049,12.535-34.049,38.929S12220.78,5527.833,12220.78,5527.833Z" transform="translate(-12152.98 -5406.18)" fill="#cc252b" stroke="#cc252b" stroke-width="6"/></g><g transform="matrix(1, 0, 0, 1, -30.41, -14.36)" filter="url(#c)"><path d="M19.69,0a19.58,19.58,0,0,1,19.69,19.469A19.58,19.58,0,0,1,19.69,38.937,19.58,19.58,0,0,1,0,19.469,19.58,19.58,0,0,1,19.69,0Z" transform="translate(48.31 30.79)" fill="#fff"/></g></g></g></svg>