<svg xmlns="http://www.w3.org/2000/svg" xmlns:xlink="http://www.w3.org/1999/xlink" width="1110" height="630" viewBox="0 0 1110 751"><defs><filter id="a" x="0" y="0" width="1110" height="751" filterUnits="userSpaceOnUse"><feOffset dx="6" dy="6" input="SourceAlpha"/><feGaussianBlur stdDeviation="3" result="b"/><feFlood flood-opacity="0.161"/><feComposite operator="in" in2="b"/><feComposite in="SourceGraphic"/></filter><filter id="c" x="390" y="70" width="323.205" height="323.206" filterUnits="userSpaceOnUse"><feOffset dx="10" dy="10" input="SourceAlpha"/><feGaussianBlur result="d"/><feFlood flood-opacity="0.161"/><feComposite operator="in" in2="d"/><feComposite in="SourceGraphic"/></filter><filter id="e" x="473.439" y="113.939" width="104.691" height="104.577" filterUnits="userSpaceOnUse"><feOffset dx="10" dy="10" input="SourceAlpha"/><feGaussianBlur result="f"/><feFlood flood-opacity="0.161"/><feComposite operator="in" in2="f"/><feComposite in="SourceGraphic"/></filter><filter id="g" x="548.438" y="121.717" width="98.164" height="98.051" filterUnits="userSpaceOnUse"><feOffset dx="10" dy="10" input="SourceAlpha"/><feGaussianBlur result="h"/><feFlood flood-opacity="0.161"/><feComposite operator="in" in2="h"/><feComposite in="SourceGraphic"/></filter><filter id="i" x="464.633" y="266.797" width="62.213" height="62.212" filterUnits="userSpaceOnUse"><feOffset dx="10" dy="10" input="SourceAlpha"/><feGaussianBlur result="j"/><feFlood flood-opacity="0.161"/><feComposite operator="in" in2="j"/><feComposite in="SourceGraphic"/></filter><filter id="k" x="516.617" y="274.352" width="75.266" height="75.265" filterUnits="userSpaceOnUse"><feOffset dx="10" dy="10" input="SourceAlpha"/><feGaussianBlur result="l"/><feFlood flood-opacity="0.161"/><feComposite operator="in" in2="l"/><feComposite in="SourceGraphic"/></filter><filter id="m" x="566.082" y="242.632" width="81.791" height="81.792" filterUnits="userSpaceOnUse"><feOffset dx="10" dy="10" input="SourceAlpha"/><feGaussianBlur result="n"/><feFlood flood-opacity="0.161"/><feComposite operator="in" in2="n"/><feComposite in="SourceGraphic"/></filter><filter id="o" x="583.363" y="184.232" width="88.316" height="88.318" filterUnits="userSpaceOnUse"><feOffset dx="10" dy="10" input="SourceAlpha"/><feGaussianBlur result="p"/><feFlood flood-opacity="0.161"/><feComposite operator="in" in2="p"/><feComposite in="SourceGraphic"/></filter><filter id="q" x="432.461" y="246.537" width="49.16" height="49.159" filterUnits="userSpaceOnUse"><feOffset dx="10" dy="10" input="SourceAlpha"/><feGaussianBlur result="r"/><feFlood flood-opacity="0.161"/><feComposite operator="in" in2="r"/><feComposite in="SourceGraphic"/></filter></defs><g transform="translate(-20526 -2866)"><g transform="translate(16 4)"><g transform="matrix(1, 0, 0, 1, 20510, 2862)" filter="url(#a)"><rect width="1092" height="733" transform="translate(3 3)" fill="#fff" opacity="0.72"/></g><g transform="matrix(1, 0, 0, 1, 20510, 2862)" filter="url(#c)"><path d="M0,0H313.206V313.206H0Z" transform="translate(390 70)" fill="none"/></g><g transform="matrix(1, 0, 0, 1, 20510, 2862)" filter="url(#e)"><ellipse cx="32.31" cy="34.617" rx="32.31" ry="34.617" transform="matrix(0.69, 0.72, -0.72, 0.69, 523.24, 113.94)" fill="#1d6991"/></g><g transform="matrix(1, 0, 0, 1, 20510, 2862)" filter="url(#g)"><ellipse cx="30.002" cy="32.31" rx="30.002" ry="32.31" transform="matrix(0.69, 0.72, -0.72, 0.69, 594.92, 121.72)" fill="#1f729e"/></g><g transform="matrix(1, 0, 0, 1, 20510, 2862)" filter="url(#i)"><circle cx="18.463" cy="18.463" r="18.463" transform="matrix(0.69, 0.72, -0.72, 0.69, 491.2, 266.8)" fill="#3a9fd5"/></g><g transform="matrix(1, 0, 0, 1, 20510, 2862)" filter="url(#k)"><ellipse cx="23.078" cy="23.078" rx="23.078" ry="23.078" transform="matrix(0.69, 0.72, -0.72, 0.69, 549.82, 274.35)" fill="#158bc9"/></g><g transform="matrix(1, 0, 0, 1, 20510, 2862)" filter="url(#m)"><ellipse cx="25.386" cy="25.386" rx="25.386" ry="25.386" transform="matrix(0.69, 0.72, -0.72, 0.69, 602.6, 242.63)" fill="#2b95cc"/></g><g transform="matrix(1, 0, 0, 1, 20510, 2862)" filter="url(#o)"><ellipse cx="27.694" cy="27.694" rx="27.694" ry="27.694" transform="matrix(0.69, 0.72, -0.72, 0.69, 623.21, 184.23)" fill="#1b7eb2"/></g><g transform="matrix(1, 0, 0, 1, 20510, 2862)" filter="url(#q)"><path d="M13.847,0A13.847,13.847,0,1,1,0,13.847,13.847,13.847,0,0,1,13.847,0Z" transform="matrix(0.69, 0.72, -0.72, 0.69, 452.38, 246.54)" fill="#54c0fb"/></g><text transform="translate(20639 3320)" fill="#1d6991" font-size="43" font-family="SegoeUI-Semibold, Segoe UI" font-weight="600"><tspan x="0" y="0">¡Oops! Parece que has viajado en el tiempo</tspan></text><text transform="translate(20586 3404)" fill="#1d6991" font-size="37" font-family="SegoeUI, Segoe UI"><tspan x="0" y="0">La página que tratas de acceder, aún está en construcción</tspan></text></g></g></svg>