<svg xmlns="http://www.w3.org/2000/svg" width="24" height="31" viewBox="0 0 164 171.048"><g transform="translate(-10977 -2828)"><rect width="164" height="170" rx="29" transform="translate(10977 2828)" fill="#465993"/><path d="M10906.344,2985.048V2926.43s22.3.574,23.991,0,2.813-21.716,2.813-21.716a10.279,10.279,0,0,0-.587-3.377,3.3,3.3,0,0,0-2.227-1.371h-23.991v-20.034s.446-3.848,2.116-5.579,4.563-1.346,4.563-1.346h14.84a6.374,6.374,0,0,0,3.2-.732,4.355,4.355,0,0,0,1.5-2.483v-16.819a3.847,3.847,0,0,0-.527-1.988,3.255,3.255,0,0,0-2-.97s-18.577-.119-23.216,0-11.974,2.773-17.786,9.389a28.492,28.492,0,0,0-7.42,16.818c-.21,3.563,0,23.744,0,23.744h-15.088a5.739,5.739,0,0,0-2.385.47,2.485,2.485,0,0,0-1.078,1.509v21.271a4.5,4.5,0,0,0,1.078,2.326,4.4,4.4,0,0,0,2.385.89h15.088l-.99,58.618Z" transform="translate(177 14)" fill="#fff"/></g></svg>