<svg xmlns="http://www.w3.org/2000/svg" xmlns:xlink="http://www.w3.org/1999/xlink" width="150.543" height="163.4" viewBox="0 0 150.543 163.4"><defs><radialGradient id="a" cx="0.5" cy="0.5" r="0.5" gradientUnits="objectBoundingBox"><stop offset="0" stop-color="#fffdce"/><stop offset="1" stop-color="#f6f03b"/></radialGradient><filter id="b" x="39.77" y="35.589" width="92.32" height="106.788" filterUnits="userSpaceOnUse"><feOffset dx="10" dy="10" input="SourceAlpha"/><feGaussianBlur stdDeviation="5" result="c"/><feFlood flood-opacity="0.161"/><feComposite operator="in" in2="c"/><feComposite in="SourceGraphic"/></filter><linearGradient id="d" x1="0.614" y1="1.017" x2="0.62" y2="0.029" gradientUnits="objectBoundingBox"><stop offset="0" stop-color="#cbc9c9"/><stop offset="1" stop-color="#9a9696"/></linearGradient><filter id="e" x="55.465" y="110.498" width="57.799" height="52.903" filterUnits="userSpaceOnUse"><feOffset dx="10" dy="10" input="SourceAlpha"/><feGaussianBlur stdDeviation="5" result="f"/><feFlood flood-opacity="0.161"/><feComposite operator="in" in2="f"/><feComposite in="SourceGraphic"/></filter><filter id="g" x="62.378" y="124.565" width="34.29" height="13.807" filterUnits="userSpaceOnUse"><feOffset dx="5" dy="5" input="SourceAlpha"/><feGaussianBlur stdDeviation="1.5" result="h"/><feFlood flood-opacity="0.161"/><feComposite operator="in" in2="h"/><feComposite in="SourceGraphic"/></filter><filter id="i" x="16.385" y="71.434" width="19.921" height="9.667" filterUnits="userSpaceOnUse"><feOffset dx="5" dy="5" input="SourceAlpha"/><feGaussianBlur stdDeviation="1.5" result="j"/><feFlood flood-opacity="0.161"/><feComposite operator="in" in2="j"/><feComposite in="SourceGraphic"/></filter><filter id="k" x="124.008" y="71.198" width="19.921" height="9.667" filterUnits="userSpaceOnUse"><feOffset dx="5" dy="5" input="SourceAlpha"/><feGaussianBlur stdDeviation="1.5" result="l"/><feFlood flood-opacity="0.161"/><feComposite operator="in" in2="l"/><feComposite in="SourceGraphic"/></filter><filter id="m" x="21.573" y="117.744" width="19.877" height="14.688" filterUnits="userSpaceOnUse"><feOffset dx="5" dy="5" input="SourceAlpha"/><feGaussianBlur stdDeviation="1.5" result="n"/><feFlood flood-opacity="0.161"/><feComposite operator="in" in2="n"/><feComposite in="SourceGraphic"/></filter><filter id="o" x="118.819" y="117.744" width="19.877" height="14.688" filterUnits="userSpaceOnUse"><feOffset dx="5" dy="5" input="SourceAlpha"/><feGaussianBlur stdDeviation="1.5" result="p"/><feFlood flood-opacity="0.161"/><feComposite operator="in" in2="p"/><feComposite in="SourceGraphic"/></filter><filter id="q" x="26.762" y="22.682" width="19.877" height="14.688" filterUnits="userSpaceOnUse"><feOffset dx="5" dy="5" input="SourceAlpha"/><feGaussianBlur stdDeviation="1.5" result="r"/><feFlood flood-opacity="0.161"/><feComposite operator="in" in2="r"/><feComposite in="SourceGraphic"/></filter><filter id="s" x="113.631" y="22.682" width="19.877" height="14.688" filterUnits="userSpaceOnUse"><feOffset dx="5" dy="5" input="SourceAlpha"/><feGaussianBlur stdDeviation="1.5" result="t"/><feFlood flood-opacity="0.161"/><feComposite operator="in" in2="t"/><feComposite in="SourceGraphic"/></filter><filter id="u" x="124.008" y="22.682" width="9.5" height="9.5" filterUnits="userSpaceOnUse"><feOffset dx="5" dy="5" input="SourceAlpha"/><feGaussianBlur stdDeviation="1.5" result="v"/><feFlood flood-opacity="0.161"/><feComposite operator="in" in2="v"/><feComposite in="SourceGraphic"/></filter><filter id="w" x="77.203" y="12.541" width="9.972" height="19.641" filterUnits="userSpaceOnUse"><feOffset dx="5" dy="5" input="SourceAlpha"/><feGaussianBlur stdDeviation="1.5" result="x"/><feFlood flood-opacity="0.161"/><feComposite operator="in" in2="x"/><feComposite in="SourceGraphic"/></filter><filter id="y" x="17.279" y="72.787" width="23.985" height="13.731" filterUnits="userSpaceOnUse"><feOffset dx="5" dy="5" input="SourceAlpha"/><feGaussianBlur stdDeviation="1.5" result="z"/><feFlood flood-opacity="0.161"/><feComposite operator="in" in2="z"/><feComposite in="SourceGraphic"/></filter><filter id="aa" x="120.719" y="72.551" width="23.985" height="13.731" filterUnits="userSpaceOnUse"><feOffset dx="5" dy="5" input="SourceAlpha"/><feGaussianBlur stdDeviation="1.5" result="ab"/><feFlood flood-opacity="0.161"/><feComposite operator="in" in2="ab"/><feComposite in="SourceGraphic"/></filter><filter id="ac" x="21.816" y="117.612" width="25.244" height="20.055" filterUnits="userSpaceOnUse"><feOffset dx="5" dy="5" input="SourceAlpha"/><feGaussianBlur stdDeviation="1.5" result="ad"/><feFlood flood-opacity="0.161"/><feComposite operator="in" in2="ad"/><feComposite in="SourceGraphic"/></filter><filter id="ae" x="114.879" y="117.612" width="25.244" height="20.055" filterUnits="userSpaceOnUse"><feOffset dx="5" dy="5" input="SourceAlpha"/><feGaussianBlur stdDeviation="1.5" result="af"/><feFlood flood-opacity="0.161"/><feComposite operator="in" in2="af"/><feComposite in="SourceGraphic"/></filter><filter id="ag" x="27.005" y="24.342" width="25.244" height="20.055" filterUnits="userSpaceOnUse"><feOffset dx="5" dy="5" input="SourceAlpha"/><feGaussianBlur stdDeviation="1.5" result="ah"/><feFlood flood-opacity="0.161"/><feComposite operator="in" in2="ah"/><feComposite in="SourceGraphic"/></filter><filter id="ai" x="109.69" y="24.342" width="25.244" height="20.055" filterUnits="userSpaceOnUse"><feOffset dx="5" dy="5" input="SourceAlpha"/><feGaussianBlur stdDeviation="1.5" result="aj"/><feFlood flood-opacity="0.161"/><feComposite operator="in" in2="aj"/><feComposite in="SourceGraphic"/></filter><filter id="ak" x="122.751" y="27.025" width="9.5" height="9.5" filterUnits="userSpaceOnUse"><feOffset dx="5" dy="5" input="SourceAlpha"/><feGaussianBlur stdDeviation="1.5" result="al"/><feFlood flood-opacity="0.161"/><feComposite operator="in" in2="al"/><feComposite in="SourceGraphic"/></filter><filter id="am" x="75.867" y="14.793" width="14.153" height="23.823" filterUnits="userSpaceOnUse"><feOffset dx="5" dy="5" input="SourceAlpha"/><feGaussianBlur stdDeviation="1.5" result="an"/><feFlood flood-opacity="0.161"/><feComposite operator="in" in2="an"/><feComposite in="SourceGraphic"/></filter></defs><g transform="translate(-15755.539 -7836.049)"><g transform="translate(-624 -979)"><g transform="translate(16395.924 8827.59)"><g transform="translate(0 0)"><g transform="translate(0 0)"><g transform="translate(28.385 28.048)"><g transform="matrix(1, 0, 0, 1, -44.77, -40.59)" filter="url(#b)"><path d="M27.413,74.73s-12.372-.583-18.638-7.1A30.687,30.687,0,0,1,.188,43.05,31.685,31.685,0,0,1,8.775,22.109C17.639,13,13.252,4.635,13.252,4.635S12.93.56,16.254.559H27.471L43.493,0s2.6,1.084,2.844,3.495-1.539,5.218-.967,9S50.3,20.658,50.3,20.658a26.522,26.522,0,0,1,7.438,11.259,46.227,46.227,0,0,1,1.877,17.067c-.224,2.681-3.035,13.772-10.988,20.078S27.413,74.73,27.413,74.73Z" transform="translate(104.48 117.38) rotate(-178)" fill="url(#a)"/></g><g transform="matrix(1, 0, 0, 1, -44.77, -40.59)" filter="url(#e)"><path d="M12.93,21.967c5.71-.047,12.014-.42,12.014-.42s3.922-2.435.535-5.61a1.522,1.522,0,0,0,1.455-2.19A3.029,3.029,0,0,0,25.278,12.1s1.656-.34,1.656-1.068a2.568,2.568,0,0,0-.573-1.409,3.273,3.273,0,0,0,.573-1.986,4.947,4.947,0,0,0-1.455-2.328S25.382.654,21.308.363a66.477,66.477,0,0,0-8.205,0s-6.089-1-8.98.314S1.54,5.6,1.54,5.6A4.127,4.127,0,0,0,.372,7.543c-.053.857.955,1.487.955,1.487A3.345,3.345,0,0,0,.255,10.968a3.358,3.358,0,0,0,1.019,1.97S.074,13.963.147,14.682s1.417,1.133,1.417,1.133S-.127,17.382.008,18.862s2.1,2.872,2.1,2.872S7.22,22.014,12.93,21.967Z" transform="translate(87.5 138.4) rotate(-178)" fill="url(#d)"/></g><path d="M23.938,3.257A51.582,51.582,0,0,0,13.287.51,75.73,75.73,0,0,0,0,.136" transform="translate(41.938 84.583) rotate(-178)" fill="none"/><g transform="matrix(1, 0, 0, 1, -44.77, -40.59)" filter="url(#g)"><path d="M24.685,3.448A55.089,55.089,0,0,0,13.636.7,100.543,100.543,0,0,0,0,.014" transform="translate(87.05 128.87) rotate(-178)" fill="none"/></g><path d="M24.546,3.832s-.782-.344-2.167-.841A47.547,47.547,0,0,0,13.339.7,96.239,96.239,0,0,0,0,.014" transform="translate(41.63 91.749) rotate(-178)" fill="none"/><path d="M12.593,3.434A24.073,24.073,0,0,0,7.027,1.1,41.4,41.4,0,0,0,0,0" transform="translate(30.327 95.098) rotate(-178)" fill="none"/><path d="M12.951,2.043A25.567,25.567,0,0,0,6.971.3,37.136,37.136,0,0,0,0,.068" transform="translate(42.316 81.64) rotate(-178)" fill="none"/><path d="M23.427,42.994c.313-14.221-3.783-15.39-8.107-18.754-1.438-1.117-2.939-2.983-4.1-6.548C6.929,4.536,9.818,0,9.818,0H2.31S.528,11.795,3.96,17.692s14.817,9.989,13.58,22.683S0,67.073,0,67.073,23,62.5,23.427,42.994Z" transform="translate(28.362 72.264) rotate(-178)" fill="#fdfcd0"/></g><g transform="translate(0 58.657)"><g transform="matrix(1, 0, 0, 1, -16.38, -71.2)" filter="url(#i)"><line x1="10.421" y2="0.167" transform="translate(16.38 71.43)" fill="none"/></g><g transform="matrix(1, 0, 0, 1, -16.38, -71.2)" filter="url(#k)"><line x1="10.421" y2="0.167" transform="translate(124.01 71.2)" fill="none"/></g></g><g transform="translate(5.189)"><g transform="matrix(1, 0, 0, 1, -21.57, -12.54)" filter="url(#m)"><line x1="10.377" y2="5.189" transform="translate(21.57 117.74)" fill="none"/></g><g transform="matrix(1, 0, 0, 1, -21.57, -12.54)" filter="url(#o)"><line x2="10.377" y2="5.189" transform="translate(118.82 117.74)" fill="none"/></g><g transform="matrix(1, 0, 0, 1, -21.57, -12.54)" filter="url(#q)"><line x1="10.377" y1="5.189" transform="translate(26.76 22.68)" fill="none"/></g><g transform="matrix(1, 0, 0, 1, -21.57, -12.54)" filter="url(#s)"><line y1="5.189" x2="10.377" transform="translate(113.63 22.68)" fill="none"/></g><g transform="matrix(1, 0, 0, 1, -21.57, -12.54)" filter="url(#u)"><path d="M44,0" transform="translate(80.01 22.68)" fill="none"/></g><g transform="matrix(1, 0, 0, 1, -21.57, -12.54)" filter="url(#w)"><line y1="10.141" x2="0.472" transform="translate(77.2 12.54)" fill="none"/></g></g><g transform="translate(2.926 4.343)"><g transform="translate(0 57.699)"><g transform="matrix(1, 0, 0, 1, -19.31, -74.58)" filter="url(#y)"><line x1="10.421" y2="0.167" transform="translate(19.31 74.82)" fill="none" stroke="#f3ec18" stroke-linecap="round" stroke-width="4"/></g><g transform="matrix(1, 0, 0, 1, -19.31, -74.58)" filter="url(#aa)"><line x1="10.421" y2="0.167" transform="translate(122.75 74.58)" fill="none" stroke="#f3ec18" stroke-linecap="round" stroke-width="4"/></g></g><g transform="translate(5.189 0)"><g transform="matrix(1, 0, 0, 1, -24.5, -16.88)" filter="url(#ac)"><line x1="10.377" y2="5.189" transform="translate(24.5 120.3)" fill="none" stroke="#f3ec18" stroke-linecap="round" stroke-width="4"/></g><g transform="matrix(1, 0, 0, 1, -24.5, -16.88)" filter="url(#ae)"><line x2="10.377" y2="5.189" transform="translate(117.56 120.3)" fill="none" stroke="#f3ec18" stroke-linecap="round" stroke-width="4"/></g><g transform="matrix(1, 0, 0, 1, -24.5, -16.88)" filter="url(#ag)"><line x1="10.377" y1="5.189" transform="translate(29.69 27.03)" fill="none" stroke="#f3ec18" stroke-linecap="round" stroke-width="4"/></g><g transform="matrix(1, 0, 0, 1, -24.5, -16.88)" filter="url(#ai)"><line y1="5.189" x2="10.377" transform="translate(112.37 27.03)" fill="none" stroke="#f3ec18" stroke-linecap="round" stroke-width="4"/></g><g transform="matrix(1, 0, 0, 1, -24.5, -16.88)" filter="url(#ak)"><path d="M44,0" transform="translate(78.75 27.03)" fill="none" stroke="#f3ec18" stroke-linecap="round" stroke-width="4"/></g><g transform="matrix(1, 0, 0, 1, -24.5, -16.88)" filter="url(#am)"><line y1="10.141" x2="0.472" transform="translate(77.96 16.88)" fill="none" stroke="#f3ec18" stroke-linecap="round" stroke-width="4"/></g></g></g></g></g></g><rect width="150.543" height="150.542" transform="translate(16379.539 8815.049)" fill="none"/></g></g></svg>