<svg xmlns="http://www.w3.org/2000/svg" xmlns:xlink="http://www.w3.org/1999/xlink" width="152.738" height="150.542" viewBox="0 0 152.738 150.542"><defs><linearGradient id="a" x1="0.895" y1="0.186" x2="-0.006" y2="0.111" gradientUnits="objectBoundingBox"><stop offset="0" stop-color="#66e780"/><stop offset="0.186" stop-color="#5cd953"/><stop offset="1" stop-color="#0c8724"/></linearGradient><filter id="b" x="25.92" y="46.279" width="126.818" height="98.902" filterUnits="userSpaceOnUse"><feOffset dx="10" dy="10" input="SourceAlpha"/><feGaussianBlur stdDeviation="5" result="c"/><feFlood flood-opacity="0.161"/><feComposite operator="in" in2="c"/><feComposite in="SourceGraphic"/></filter></defs><g transform="matrix(1, 0, 0, 1, 0, 0)" filter="url(#b)"><path d="M64.79,94.585s3.938-23.346-5.129-40.823S27.6,28.049,27.6,28.049c-.881-.394,7.017-4.475,11.891-10.573a43.143,43.143,0,0,0,6.959-13.95S40.593,5.782,36.577,4.9,30.389,0,30.389,0,27.425,6.8,19.533,14.189-1.091,24.823.075,27.088c4.967,9.649,27.388,12.9,41.4,26.038S64.79,94.585,64.79,94.585Z" transform="translate(33.21 120.18) rotate(-92)" fill="url(#a)"/></g><rect width="150.543" height="150.542" transform="translate(0 0)" fill="none"/></svg>