<svg xmlns="http://www.w3.org/2000/svg" xmlns:xlink="http://www.w3.org/1999/xlink" width="162.695" height="165.585" viewBox="0 0 162.695 165.585"><defs><linearGradient id="a" x1="0.5" x2="0.5" y2="1" gradientUnits="objectBoundingBox"><stop offset="0" stop-color="#d52817"/><stop offset="0.577" stop-color="#d12716"/><stop offset="1" stop-color="#8d150a"/></linearGradient><filter id="b" x="12.438" y="18.663" width="100.387" height="136.971" filterUnits="userSpaceOnUse"><feOffset dx="10" dy="10" input="SourceAlpha"/><feGaussianBlur stdDeviation="3" result="c"/><feFlood flood-opacity="0.161"/><feComposite operator="in" in2="c"/><feComposite in="SourceGraphic"/></filter><filter id="e" x="77.918" y="18.663" width="84.777" height="146.923" filterUnits="userSpaceOnUse"><feOffset dx="10" dy="20" input="SourceAlpha"/><feGaussianBlur stdDeviation="3" result="f"/><feFlood flood-opacity="0.161"/><feComposite operator="in" in2="f"/><feComposite in="SourceGraphic"/></filter></defs><g transform="translate(-16654 -7831)"><g transform="matrix(1, 0, 0, 1, 16654, 7831)" filter="url(#b)"><path d="M16124.37,7941.289s-12.43-17.976-27-18.428-24.768,2.907-33.021,15.957-9.062,23.858-5.418,37.685c7.675,29.109,63.431,64.29,63.431,64.29l15.891-19.205Z" transform="translate(-16044.42 -7904.16)" fill="url(#a)"/></g><g transform="matrix(1, 0, 0, 1, 16654, 7831)" filter="url(#e)"><path d="M16056.862,7938.817s10.7-15.5,25.271-15.957,24.769,2.907,33.021,15.957,9.063,23.858,5.418,37.685c-7.675,29.109-63.711,64.242-63.711,64.242Z" transform="translate(-15978.94 -7904.16)" fill="url(#a)"/></g><path d="M17.52,0c9.676,0,17.52,4.136,17.52,9.239s-7.844,0-17.52,0S0,14.341,0,9.239,7.844,0,17.52,0Z" transform="matrix(0.839, -0.545, 0.545, 0.839, 16672.461, 7870.069)" fill="#fff"/><rect width="155.907" height="155.907" transform="translate(16654 7831)" fill="none"/></g></svg>