<svg xmlns="http://www.w3.org/2000/svg" width="400" height="100" viewBox="0 0 325.04 84.226"><g transform="translate(-2758.763 -10398.534)"><g transform="translate(2747.092 10388.943)"><g transform="translate(0 0)"><g transform="translate(96.712 9.591)"><text transform="translate(0 68)" fill="#fff" font-size="79" font-family="MS-UIGothic, MS UI Gothic"><tspan x="0" y="0">Qwerty</tspan></text></g><g transform="matrix(0.695, 0.719, -0.719, 0.695, 56.801, 0)"><ellipse cx="11.761" cy="12.601" rx="11.761" ry="12.601" transform="translate(0 16.801)" fill="#fff"/><ellipse cx="10.921" cy="11.761" rx="10.921" ry="11.761" transform="translate(20.16 0)" fill="#fff"/><circle cx="6.72" cy="6.72" r="6.72" transform="translate(31.921 63.843)" fill="#fff"/><circle cx="8.4" cy="8.4" r="8.4" transform="translate(48.722 50.402)" fill="#fff"/><circle cx="9.24" cy="9.24" r="9.24" transform="translate(53.763 28.561)" fill="#fff"/><circle cx="10.08" cy="10.08" r="10.08" transform="translate(43.681 8.401)" fill="#fff"/><path d="M5.04,0A5.04,5.04,0,1,1,0,5.04,5.04,5.04,0,0,1,5.04,0Z" transform="translate(16.802 68.883)" fill="#fff"/></g></g></g></g></svg>