<svg xmlns="http://www.w3.org/2000/svg" width="200" height="60" viewBox="0 0 1159 298.115"><g transform="translate(-2788.403 -10422.891)"><g transform="translate(-961 3797)"><g transform="translate(856.293 2394)"><text transform="translate(3194.109 4474.89)" fill="#2e9ad4" font-size="283" font-family="MS-UIGothic, MS UI Gothic"><tspan x="0" y="0">Qwerty</tspan></text><g transform="matrix(0.695, 0.719, -0.719, 0.695, 3052.847, 4197.943)"><ellipse cx="41.626" cy="44.6" rx="41.626" ry="44.6" transform="translate(0 59.466)" fill="#1d6991"/><ellipse cx="38.653" cy="41.626" rx="38.653" ry="41.626" transform="translate(71.355 0)" fill="#1f729e"/><circle cx="23.787" cy="23.787" r="23.787" transform="translate(112.983 225.972)" fill="#3a9fd5"/><circle cx="29.733" cy="29.733" r="29.733" transform="translate(172.452 178.398)" fill="#158bc9"/><ellipse cx="32.706" cy="32.706" rx="32.706" ry="32.706" transform="translate(190.294 101.093)" fill="#2b95cc"/><circle cx="35.68" cy="35.68" r="35.68" transform="translate(154.61 29.735)" fill="#1b7eb2"/><path d="M17.84,0A17.84,17.84,0,1,1,0,17.84,17.84,17.84,0,0,1,17.84,0Z" transform="translate(59.469 243.81)" fill="#54c0fb"/></g></g></g></g></svg>