<svg xmlns="http://www.w3.org/2000/svg" width="577.964" height="353.244" viewBox="0 0 577.964 353.244"><g transform="translate(-5673.557 -21465.699)"><g transform="translate(5673.557 21465.699)"><g transform="translate(112.857)"><path d="M5.978,199.157c11.148,14.009,56.848,34.688,88.518,23.114,38.133-13.937,34.017-44.687,88.656-72.693s152.478,2.682,129.9-39.332,115.492-35.492,98.284-69.12S308.8-11.738,225.718,7.879,92.945,100.25,79,119.594C38.088,176.37-18.633,168.233,5.978,199.157Z" transform="matrix(0.94, 0.342, -0.342, 0.94, 77.18, -0.001)" fill="#e1507d"/></g><g transform="translate(208.629 158.721) rotate(-10)"><text transform="translate(0 34)" fill="#fff" font-size="40" font-family="MS-UIGothic, MS UI Gothic"><tspan x="0" y="0">Nuestra Misión</tspan></text></g><path d="M5886.8,21427.809l47.662-98.379v125.732l83.477-191.687v221.576l-83.477-29.889Z" transform="translate(-5886.804 -21131.945)" fill="#efcb6d"/><path d="M5981.34,21265.555l.508,219.945,116.455-57.715-41.8-81.641,2.638,94.008Z" transform="translate(-5850.71 -21132.395)" fill="#d4b362"/><path d="M5922.894,21308.438l30.335,58.361-29.63,65.953Z" transform="translate(-5875.926 -21109.453)" fill="#d4b362"/><path d="M6020.886,21364.414l21.3-40.754,2.817,94.764Z" transform="translate(-5836.158 -21109.215)" fill="#efcb6d"/><path d="M6534.858,21188.5l3.9,15.33a31.971,31.971,0,0,0,10.592,2.23,21.113,21.113,0,0,0,10.313-2.23c2.23-1.115-1.119-1.547-.631-2.594s2.583-1.586,2.583-1.586h10.034v-15.889s-11.691-.881-16.076,0,.348,2.408-1.464,3.523-3.783,1.842-8.939,2.609A21.984,21.984,0,0,1,6534.858,21188.5Z" transform="translate(-6440.587 -21095.861)" fill="#d10e6f"/><line y2="49.368" transform="translate(130.821 85.259)" fill="none" stroke="#707070" stroke-width="3"/></g></g></svg>