<svg xmlns="http://www.w3.org/2000/svg" width="697.448" height="523.895" viewBox="0 0 697.448 523.895"><g transform="translate(-9059.557 -7128.722)"><g transform="translate(-4 2)"><g transform="translate(-165 -163)"><g transform="translate(9418.039 7392.471)"><path d="M9858.616,7877.539c-9.734-37.453-103.341-155.921-210.395-167.228s-135.33,94.8-217.927,124.829-79.058,2.828-79.058,25.439,21.83,82.679,79.058,93.277,69.911-52.291,140.413-55.117,108.313,38.1,155.807,35.985-43.153-73.392-10.128-87.688S9868.352,7914.992,9858.616,7877.539Z" transform="translate(-9351.215 -7709.471)" fill="#e1507d"/><g transform="translate(113.859 58.766)"><g transform="matrix(0.97, -0.242, 0.242, 0.97, 25, 52.058)"><text transform="translate(0 38)" fill="#fff" font-size="44" font-family="MS-UIGothic, MS UI Gothic"><tspan x="0" y="0">Nuestra Misión</tspan></text></g></g></g><g transform="translate(9228.557 7404.722)"><g transform="translate(0 -115)"><path d="M5886.8,21602.322l85.424-202.857v259.262l149.615-395.256v456.889l-149.615-61.633Z" transform="translate(-5886.804 -21196.465)" fill="#efcb6d"/><path d="M5981.339,21265.555l.911,448.521,208.724-117.693-74.918-166.488,4.727,191.707Z" transform="translate(-5747.208 -21190.191)" fill="#d4b362"/><path d="M5922.892,21308.438l54.372,121.092-53.108,136.838Z" transform="translate(-5838.711 -21104.488)" fill="#d4b362"/><path d="M6020.885,21411.113l38.174-87.453,5.049,203.35Z" transform="translate(-5689.793 -21082.477)" fill="#efcb6d"/><g transform="translate(167.788)"><path d="M6534.856,21191.2l6.993,23.4s9.618,3.4,18.984,3.4,14.488-1.707,18.484-3.4-2-2.363-1.13-3.961,4.629-2.418,4.629-2.418H6600.8v-24.256s-20.954-1.348-28.812,0,.624,3.674-2.624,5.377-6.781,2.811-16.022,3.982S6534.856,21191.2,6534.856,21191.2Z" transform="translate(-6534.856 -21179.936)" fill="#d10e6f"/><line y2="75.364" transform="translate(65.508)" fill="none" stroke="#707070" stroke-width="3"/></g></g></g></g></g></g></svg>