<svg xmlns="http://www.w3.org/2000/svg" xmlns:xlink="http://www.w3.org/1999/xlink" width="100" height="100" viewBox="0 0 100 100"><defs><filter id="a" x="30.138" y="22.399" width="40.758" height="56.113" filterUnits="userSpaceOnUse"><feOffset dx="1" dy="1" input="SourceAlpha"/><feGaussianBlur stdDeviation="0.05" result="b"/><feFlood flood-opacity="0.161"/><feComposite operator="in" in2="b"/><feComposite in="SourceGraphic"/></filter><filter id="c" x="32.753" y="25.957" width="36.426" height="49.306" filterUnits="userSpaceOnUse"><feOffset dx="1" dy="1" input="SourceAlpha"/><feGaussianBlur stdDeviation="0.5" result="d"/><feFlood flood-opacity="0.161"/><feComposite operator="in" in2="d"/><feComposite in="SourceGraphic"/></filter><filter id="e" x="38.666" y="67.683" width="20.76" height="20.76" filterUnits="userSpaceOnUse"><feOffset dy="3" input="SourceAlpha"/><feGaussianBlur stdDeviation="3" result="f"/><feFlood flood-opacity="0.161"/><feComposite operator="in" in2="f"/><feComposite in="SourceGraphic"/></filter><filter id="g" x="35.206" y="29.943" width="10.36" height="10.053" filterUnits="userSpaceOnUse"><feOffset dx="1" dy="1" input="SourceAlpha"/><feGaussianBlur stdDeviation="0.5" result="h"/><feFlood flood-opacity="0.161"/><feComposite operator="in" in2="h"/><feComposite in="SourceGraphic"/></filter><filter id="i" x="45.019" y="29.943" width="10.36" height="10.053" filterUnits="userSpaceOnUse"><feOffset dx="1" dy="1" input="SourceAlpha"/><feGaussianBlur stdDeviation="0.5" result="j"/><feFlood flood-opacity="0.161"/><feComposite operator="in" in2="j"/><feComposite in="SourceGraphic"/></filter><filter id="k" x="54.832" y="29.943" width="10.36" height="10.053" filterUnits="userSpaceOnUse"><feOffset dx="1" dy="1" input="SourceAlpha"/><feGaussianBlur stdDeviation="0.5" result="l"/><feFlood flood-opacity="0.161"/><feComposite operator="in" in2="l"/><feComposite in="SourceGraphic"/></filter><filter id="m" x="45.019" y="39.45" width="10.36" height="10.053" filterUnits="userSpaceOnUse"><feOffset dx="1" dy="1" input="SourceAlpha"/><feGaussianBlur stdDeviation="0.5" result="n"/><feFlood flood-opacity="0.161"/><feComposite operator="in" in2="n"/><feComposite in="SourceGraphic"/></filter><filter id="o" x="45.019" y="48.956" width="10.36" height="10.053" filterUnits="userSpaceOnUse"><feOffset dx="1" dy="1" input="SourceAlpha"/><feGaussianBlur stdDeviation="0.5" result="p"/><feFlood flood-opacity="0.161"/><feComposite operator="in" in2="p"/><feComposite in="SourceGraphic"/></filter><filter id="q" x="45.019" y="58.463" width="10.36" height="10.053" filterUnits="userSpaceOnUse"><feOffset dx="1" dy="1" input="SourceAlpha"/><feGaussianBlur stdDeviation="0.5" result="r"/><feFlood flood-opacity="0.161"/><feComposite operator="in" in2="r"/><feComposite in="SourceGraphic"/></filter><filter id="s" x="35.206" y="39.45" width="10.36" height="10.053" filterUnits="userSpaceOnUse"><feOffset dx="1" dy="1" input="SourceAlpha"/><feGaussianBlur stdDeviation="0.5" result="t"/><feFlood flood-opacity="0.161"/><feComposite operator="in" in2="t"/><feComposite in="SourceGraphic"/></filter><filter id="u" x="35.206" y="48.956" width="10.36" height="10.053" filterUnits="userSpaceOnUse"><feOffset dx="1" dy="1" input="SourceAlpha"/><feGaussianBlur stdDeviation="0.5" result="v"/><feFlood flood-opacity="0.161"/><feComposite operator="in" in2="v"/><feComposite in="SourceGraphic"/></filter><filter id="w" x="35.206" y="58.463" width="10.36" height="10.053" filterUnits="userSpaceOnUse"><feOffset dx="1" dy="1" input="SourceAlpha"/><feGaussianBlur stdDeviation="0.5" result="x"/><feFlood flood-opacity="0.161"/><feComposite operator="in" in2="x"/><feComposite in="SourceGraphic"/></filter><filter id="y" x="54.832" y="39.45" width="10.36" height="10.053" filterUnits="userSpaceOnUse"><feOffset dx="1" dy="1" input="SourceAlpha"/><feGaussianBlur stdDeviation="0.5" result="z"/><feFlood flood-opacity="0.161"/><feComposite operator="in" in2="z"/><feComposite in="SourceGraphic"/></filter><filter id="aa" x="54.832" y="48.649" width="10.36" height="10.053" filterUnits="userSpaceOnUse"><feOffset dx="1" dy="1" input="SourceAlpha"/><feGaussianBlur stdDeviation="0.5" result="ab"/><feFlood flood-opacity="0.161"/><feComposite operator="in" in2="ab"/><feComposite in="SourceGraphic"/></filter></defs><g transform="translate(-10415.122 -5947.057)"><g transform="translate(10524.122 5924.057)"><circle cx="50" cy="50" r="50" transform="translate(-109 23)" fill="#24a6ec"/><g transform="translate(-78.862 45.399)"><g transform="matrix(1, 0, 0, 1, -30.14, -22.4)" filter="url(#a)"><rect width="39.608" height="54.964" transform="translate(30.14 22.4)" fill="#006d94"/></g><g transform="matrix(1, 0, 0, 1, -30.14, -22.4)" filter="url(#c)"><rect width="33.426" height="46.306" transform="translate(33.25 26.46)" fill="#fff"/></g><g transform="matrix(1, 0, 0, 1, -30.14, -22.4)" filter="url(#e)"><circle cx="1.38" cy="1.38" r="1.38" transform="translate(47.67 73.68)" fill="#fff"/></g><rect width="7.973" height="1.533" rx="0.767" transform="translate(15.382 1.84)" fill="#fff"/><g transform="matrix(1, 0, 0, 1, -30.14, -22.4)" filter="url(#g)"><rect width="7.36" height="7.053" rx="2" transform="translate(35.71 30.44)" fill="#71e671"/></g><g transform="matrix(1, 0, 0, 1, -30.14, -22.4)" filter="url(#i)"><rect width="7.36" height="7.053" rx="2" transform="translate(45.52 30.44)" fill="#24a6ec"/></g><g transform="matrix(1, 0, 0, 1, -30.14, -22.4)" filter="url(#k)"><rect width="7.36" height="7.053" rx="2" transform="translate(55.33 30.44)" fill="#e671de"/></g><g transform="matrix(1, 0, 0, 1, -30.14, -22.4)" filter="url(#m)"><rect width="7.36" height="7.053" rx="2" transform="translate(45.52 39.95)" fill="#71a0e6"/></g><g transform="matrix(1, 0, 0, 1, -30.14, -22.4)" filter="url(#o)"><rect width="7.36" height="7.053" rx="2" transform="translate(45.52 49.46)" fill="#71e6e6"/></g><g transform="matrix(1, 0, 0, 1, -30.14, -22.4)" filter="url(#q)"><rect width="7.36" height="7.053" rx="2" transform="translate(45.52 58.96)" fill="#ec5f00"/></g><g transform="matrix(1, 0, 0, 1, -30.14, -22.4)" filter="url(#s)"><rect width="7.36" height="7.053" rx="2" transform="translate(35.71 39.95)" fill="#e6db71"/></g><g transform="matrix(1, 0, 0, 1, -30.14, -22.4)" filter="url(#u)"><rect width="7.36" height="7.053" rx="2" transform="translate(35.71 49.46)" fill="#8519dd"/></g><g transform="matrix(1, 0, 0, 1, -30.14, -22.4)" filter="url(#w)"><rect width="7.36" height="7.053" rx="2" transform="translate(35.71 58.96)" fill="#88bd00"/></g><g transform="matrix(1, 0, 0, 1, -30.14, -22.4)" filter="url(#y)"><rect width="7.36" height="7.053" rx="2" transform="translate(55.33 39.95)" fill="#e67199"/></g><g transform="matrix(1, 0, 0, 1, -30.14, -22.4)" filter="url(#aa)"><rect width="7.36" height="7.053" rx="2" transform="translate(55.33 49.15)" fill="#e6ac71"/></g></g></g></g></svg>