<svg xmlns="http://www.w3.org/2000/svg" xmlns:xlink="http://www.w3.org/1999/xlink" width="164.419" height="153.841" viewBox="0 0 164.419 153.841"><defs><linearGradient id="a" y1="0.374" x2="0.865" y2="0.354" gradientUnits="objectBoundingBox"><stop offset="0" stop-color="#006d94"/><stop offset="0.803" stop-color="#00668a"/><stop offset="1" stop-color="#00374a"/></linearGradient><filter id="b" x="59.761" y="105.935" width="43.589" height="45.034" filterUnits="userSpaceOnUse"><feOffset dx="10" dy="10" input="SourceAlpha"/><feGaussianBlur stdDeviation="5" result="c"/><feFlood flood-opacity="0.161"/><feComposite operator="in" in2="c"/><feComposite in="SourceGraphic"/></filter><linearGradient id="d" x1="0.014" y1="0.513" x2="1.14" y2="0.513" gradientUnits="objectBoundingBox"><stop offset="0" stop-color="#006d94"/><stop offset="0.665" stop-color="#00688d"/><stop offset="1" stop-color="#003446"/></linearGradient><filter id="e" x="5.938" y="16.895" width="158.48" height="122.585" filterUnits="userSpaceOnUse"><feOffset dx="10" dy="10" input="SourceAlpha"/><feGaussianBlur stdDeviation="5" result="f"/><feFlood flood-opacity="0.161"/><feComposite operator="in" in2="f"/><feComposite in="SourceGraphic"/></filter><filter id="g" x="15.939" y="24.176" width="138.243" height="108.135" filterUnits="userSpaceOnUse"><feOffset dx="10" dy="10" input="SourceAlpha"/><feGaussianBlur stdDeviation="5" result="h"/><feFlood flood-opacity="0.161"/><feComposite operator="in" in2="h"/><feComposite in="SourceGraphic"/></filter><filter id="i" x="20.359" y="24.952" width="130.179" height="57.666" filterUnits="userSpaceOnUse"><feOffset dx="10" dy="10" input="SourceAlpha"/><feGaussianBlur stdDeviation="5" result="j"/><feFlood flood-opacity="0.161"/><feComposite operator="in" in2="j"/><feComposite in="SourceGraphic"/></filter><filter id="k" x="20.055" y="55.992" width="60.436" height="73.974" filterUnits="userSpaceOnUse"><feOffset dx="10" dy="10" input="SourceAlpha"/><feGaussianBlur stdDeviation="5" result="l"/><feFlood flood-opacity="0.161"/><feComposite operator="in" in2="l"/><feComposite in="SourceGraphic"/></filter><filter id="m" x="102.147" y="54.865" width="43" height="43.717" filterUnits="userSpaceOnUse"><feOffset dx="10" dy="10" input="SourceAlpha"/><feGaussianBlur stdDeviation="5" result="n"/><feFlood flood-opacity="0.161"/><feComposite operator="in" in2="n"/><feComposite in="SourceGraphic"/></filter><filter id="o" x="61.624" y="54.865" width="43" height="43.717" filterUnits="userSpaceOnUse"><feOffset dx="10" dy="10" input="SourceAlpha"/><feGaussianBlur stdDeviation="5" result="p"/><feFlood flood-opacity="0.161"/><feComposite operator="in" in2="p"/><feComposite in="SourceGraphic"/></filter><filter id="q" x="81.819" y="54.865" width="43" height="43.717" filterUnits="userSpaceOnUse"><feOffset dx="10" dy="10" input="SourceAlpha"/><feGaussianBlur stdDeviation="5" result="r"/><feFlood flood-opacity="0.161"/><feComposite operator="in" in2="r"/><feComposite in="SourceGraphic"/></filter><linearGradient id="s" x1="0.5" y1="0.534" x2="1.446" y2="0.534" gradientUnits="objectBoundingBox"><stop offset="0" stop-color="#006d94"/><stop offset="1" stop-color="#00374a"/></linearGradient><filter id="t" x="48.272" y="117.424" width="66.567" height="36.417" filterUnits="userSpaceOnUse"><feOffset dx="10" dy="10" input="SourceAlpha"/><feGaussianBlur stdDeviation="5" result="u"/><feFlood flood-opacity="0.161"/><feComposite operator="in" in2="u"/><feComposite in="SourceGraphic"/></filter><filter id="v" x="55.358" y="72.301" width="95.74" height="57.666" filterUnits="userSpaceOnUse"><feOffset dx="10" dy="10" input="SourceAlpha"/><feGaussianBlur stdDeviation="5" result="w"/><feFlood flood-opacity="0.161"/><feComposite operator="in" in2="w"/><feComposite in="SourceGraphic"/></filter></defs><g transform="translate(0 0)"><g transform="translate(10.939 21.895)"><g transform="matrix(1, 0, 0, 1, -10.94, -21.89)" filter="url(#b)"><rect width="15.033" height="13.589" transform="translate(78.35 110.94) rotate(90)" fill="url(#a)"/></g><g transform="matrix(1, 0, 0, 1, -10.94, -21.89)" filter="url(#e)"><rect width="92.585" height="128.481" transform="translate(139.42 21.89) rotate(90)" fill="url(#d)"/></g><g transform="matrix(1, 0, 0, 1, -10.94, -21.89)" filter="url(#g)"><rect width="78.135" height="108.243" transform="translate(129.18 29.18) rotate(90)" fill="#fff"/></g><g transform="matrix(1, 0, 0, 1, -10.94, -21.89)" filter="url(#i)"><rect width="27.666" height="100.179" transform="translate(125.54 29.95) rotate(90)" fill="#71a0e6"/></g><g transform="matrix(1, 0, 0, 1, -10.94, -21.89)" filter="url(#k)"><rect width="43.974" height="30.436" transform="translate(55.49 60.99) rotate(90)" fill="#71e671"/></g><g transform="matrix(1, 0, 0, 1, -10.94, -21.89)" filter="url(#m)"><rect width="13.717" height="13" rx="2" transform="translate(120.15 59.87) rotate(90)" fill="#e6ac71"/></g><g transform="matrix(1, 0, 0, 1, -10.94, -21.89)" filter="url(#o)"><rect width="13.717" height="13" rx="2" transform="translate(79.62 59.87) rotate(90)" fill="#e6ac71"/></g><g transform="matrix(1, 0, 0, 1, -10.94, -21.89)" filter="url(#q)"><rect width="13.717" height="13" rx="2" transform="translate(99.82 59.87) rotate(90)" fill="#e6ac71"/></g><g transform="matrix(1, 0, 0, 1, -10.94, -21.89)" filter="url(#t)"><rect width="6.417" height="36.567" transform="translate(89.84 122.42) rotate(90)" fill="url(#s)"/></g><g transform="matrix(1, 0, 0, 1, -10.94, -21.89)" filter="url(#v)"><rect width="27.666" height="65.74" transform="translate(126.1 77.3) rotate(90)" fill="#a071e6"/></g></g><rect width="150.543" height="150.542" fill="none"/></g></svg>