<svg xmlns="http://www.w3.org/2000/svg" xmlns:xlink="http://www.w3.org/1999/xlink" width="35" height="35" viewBox="0 0 140.785 140.785"><defs><filter id="a" x="28.516" y="17.814" width="90.076" height="115.993" filterUnits="userSpaceOnUse"><feOffset dx="3" dy="3" input="SourceAlpha"/><feGaussianBlur stdDeviation="1.5" result="b"/><feFlood flood-opacity="0.161"/><feComposite operator="in" in2="b"/><feComposite in="SourceGraphic"/></filter></defs><g transform="translate(-11725 -5851)"><rect width="140.785" height="140.785" transform="translate(11725 5851)" fill="none"/><g transform="matrix(1, 0, 0, 1, 11725, 5851)" filter="url(#a)"><path d="M12205.379,5597.918c-18.3-4.795-32.7-21.111-40.242-38.275s-2.75-45.475,4.711-56.908,26.086-13.225,33.492-6.01,1.813,29.99-5.1,31.756-12.2-6.143-13.719,0c-1.5,6.148-.937,16.051,5.914,27.406s14.016,18.684,21.992,19.58c7.992.9,2.625-11.957,10-14.324,7.391-2.373,19.953,14.324,19.953,14.324a24.154,24.154,0,0,1-8.2,18.654C12226.934,5600.773,12213.535,5600.059,12205.379,5597.918Z" transform="translate(-12131.31 -5473.12)" fill="#25cc73"/></g></g></svg>