<?xml version="1.0" encoding="utf-8"?>
<!-- Generator: Adobe Illustrator 16.0.3, SVG Export Plug-In . SVG Version: 6.00 Build 0)  -->
<!DOCTYPE svg PUBLIC "-//W3C//DTD SVG 1.1//EN" "http://www.w3.org/Graphics/SVG/1.1/DTD/svg11.dtd">
<svg version="1.1" xmlns="http://www.w3.org/2000/svg" xmlns:xlink="http://www.w3.org/1999/xlink" x="0px" y="0px" width="1000px"
	 height="1000px" viewBox="0 0 500 500" enable-background="new 0 0 500 500" xml:space="preserve">
<g id="BACKGROUND_1_">
	<rect opacity="0.9" fill="#FFFFFF" width="500" height="500"/>
</g>
<g id="OBJECTS">
	<g>
		<g>
			<rect x="179.714" y="146.647" fill="#003C77" width="72.574" height="217.599"/>
			<rect x="203.196" y="146.584" fill="#09468E" width="49.092" height="217.6"/>
		</g>
		<g>
			<line fill="none" stroke="#001E42" stroke-miterlimit="10" x1="219.557" y1="159.396" x2="233.71" y2="221.729"/>
			<line fill="none" stroke="#001E42" stroke-miterlimit="10" x1="249.27" y1="159.396" x2="263.424" y2="221.729"/>
			<line fill="none" stroke="#001E42" stroke-miterlimit="10" x1="258.36" y1="199.955" x2="228.647" y2="199.955"/>
			<line fill="none" stroke="#001E42" stroke-miterlimit="10" x1="261.88" y1="213.6" x2="232.167" y2="213.6"/>
			<line fill="none" stroke="#001E42" stroke-miterlimit="10" x1="252.288" y1="172.663" x2="222.575" y2="172.663"/>
			<line fill="none" stroke="#001E42" stroke-miterlimit="10" x1="255.556" y1="186.309" x2="225.843" y2="186.309"/>
		</g>
		<g>
			<rect x="279.992" y="274.157" fill="#012456" width="61.174" height="90.089"/>
			<rect x="279.992" y="274.157" fill="#001E42" width="25.899" height="90.089"/>
		</g>
		<g>
			<rect x="135.592" y="243.445" fill="#0E72CC" width="61.173" height="120.801"/>
			<rect x="135.592" y="243.445" fill="#2B7FE3" width="48.723" height="120.801"/>
		</g>
		<g>
			<rect x="173.787" y="289.871" fill="#EFEFEF" width="61.173" height="74.375"/>
			<rect x="173.787" y="289.871" opacity="0.9" fill="#FFFFFF" width="37.996" height="74.375"/>
		</g>
		<g>
			<rect x="227.324" y="221.319" opacity="0.9" fill="#BCBCBC" width="61.173" height="142.968"/>
			<rect x="249.27" y="221.278" opacity="0.9" fill="#C6C6C6" width="39.227" height="142.968"/>
		</g>
		<g>
			<g>
				<line fill="none" stroke="#F5AE3D" stroke-miterlimit="10" x1="243.927" y1="243.445" x2="216.326" y2="364.836"/>
				<line fill="none" stroke="#F5AE3D" stroke-miterlimit="10" x1="214.213" y1="243.445" x2="186.613" y2="364.836"/>
				<line fill="none" stroke="#F5AE3D" stroke-miterlimit="10" x1="195.684" y1="324.94" x2="225.397" y2="324.94"/>
				<line fill="none" stroke="#F5AE3D" stroke-miterlimit="10" x1="192.584" y1="338.586" x2="222.298" y2="338.586"/>
				<line fill="none" stroke="#F5AE3D" stroke-miterlimit="10" x1="189.28" y1="352.231" x2="218.993" y2="352.231"/>
				<line fill="none" stroke="#F5AE3D" stroke-miterlimit="10" x1="205.123" y1="284.004" x2="234.836" y2="284.004"/>
				<line fill="none" stroke="#F5AE3D" stroke-miterlimit="10" x1="201.604" y1="297.648" x2="231.317" y2="297.648"/>
				<line fill="none" stroke="#F5AE3D" stroke-miterlimit="10" x1="199.356" y1="311.295" x2="229.07" y2="311.295"/>
				<line fill="none" stroke="#F5AE3D" stroke-miterlimit="10" x1="211.195" y1="256.712" x2="240.908" y2="256.712"/>
				<line fill="none" stroke="#F5AE3D" stroke-miterlimit="10" x1="207.928" y1="270.357" x2="237.641" y2="270.357"/>
			</g>
			<g>
				<path fill="#EFEFEF" d="M214.081,235.536c0,0,4.935-6.881,13.244-9.763v2.513c0,0-6.395,3.722-6.554,7.433
					C220.611,239.43,214.081,235.536,214.081,235.536z"/>
				<g>
					<path fill="#EBA883" d="M243.648,229.138c-0.903,0.839-2.123,1.066-2.725,0.506c-0.601-0.56-0.358-1.694,0.545-2.533
						s2.123-1.065,2.725-0.506C244.795,227.164,244.551,228.298,243.648,229.138z"/>
					<path fill="#EBA883" d="M217.378,234.264c-1.342,1.026-3.622,0.511-5.091-1.15c-1.47-1.661-1.574-3.84-0.231-4.866
						c1.342-1.026,4.36-0.675,5.83,0.986l-0.51,0.441C218.624,231.293,218.646,233.293,217.378,234.264z"/>
					<polygon fill="#EBA883" points="217.208,236.266 214.081,235.536 214.183,234.474 216.206,233.892 					"/>
					<path fill="#FFFFFF" d="M214.081,235.536c0,0-2.358,6.914-2.721,12.478l9.128-0.041c0,0,0.533-3.234,2.034-5.321
						c1.394-1.938,1.692-2.954,7.859-4.303c6.167-1.349,11.633-8.378,11.633-8.378l-1.451-1.687c0,0-6.167,6.407-12.153,7.083
						C222.424,236.042,214.081,235.536,214.081,235.536z"/>
					<path fill="#001524" d="M214.183,234.474c-1.257-0.288-2.682-1.027-3.822-2.007c-1.241-1.065-1.186-2.911,0.037-3.995
						l3.048-2.7l0.404,0.515c0.506,0.647,0.46,1.535-0.112,2.134l-0.402,0.42c-0.958,1.003-1.118,2.463-0.397,3.626L214.183,234.474
						z"/>
					<g>
						<path fill="#001E42" d="M216.007,248.014h-4.647c0,0-2.709,5.511,0.536,8.949c0,0,0.532,7.581,0.143,16.208
							c-0.042,0.932-0.261,5.207-0.255,7.204h3.831C216.945,272.444,219.471,254,216.007,248.014z"/>
					</g>
					<g>
						<path fill="#012456" d="M229.842,257.021c-1.796-3.164-5.042-7.597-9.354-9.048l-9.128,0.041c0,0-3.924,8.481,8.271,8.481
							c5.116,0,6.078,2.99,6.126,6.297l0.151,3.839h3.831C229.739,266.631,230.605,258.366,229.842,257.021z"/>
					</g>
				</g>
			</g>
		</g>
		<g>
			<polygon fill="#0244A3" points="82.773,372.634 373.775,372.634 373.955,364.287 82.953,364.287 			"/>
			<polygon fill="#00418F" points="82.773,372.634 149.045,372.634 149.085,364.287 82.814,364.287 			"/>
		</g>
		<g>
			<path fill="#001524" d="M225.909,269.634h8.435v-0.794l0,0c0-0.439-0.382-0.795-0.854-0.795l0,0
				c-0.636,0-1.262-0.148-1.819-0.432l-1.931-0.982h-3.831V269.634z"/>
			<rect x="225.909" y="269.634" fill="#707070" width="8.435" height="0.625"/>
		</g>
		<g>
			<path fill="#001524" d="M211.783,283.379h8.435v-0.795l0,0c0-0.438-0.382-0.794-0.854-0.794l0,0c-0.636,0-1.262-0.148-1.82-0.433
				l-1.93-0.982h-3.831V283.379z"/>
			<rect x="211.783" y="283.379" fill="#707070" width="8.435" height="0.625"/>
		</g>
		<g>
			<g>
				<path fill="#EBA883" d="M220.086,99.394c0,0-9.032,2.392-9.552,2.23c-0.52-0.162-9.63-3.625-10.112-2.684
					c-0.809,1.581,6.387,6.328,10.525,5.181c4.138-1.146,9.807-3.608,9.807-3.608L220.086,99.394z"/>
				<path fill="#EBA883" d="M218.269,100.981c0.256,1.02,1.676,1.446,3.172,0.951c1.497-0.495,2.502-1.722,2.246-2.743
					c-0.256-1.02-1.676-1.446-3.172-0.951C219.019,98.733,218.014,99.961,218.269,100.981z"/>
			</g>
			<g>
				<polygon fill="#E8551A" points="285.681,72.776 255.248,83.714 255.248,59.675 				"/>
				<polygon fill="#D63700" points="255.248,83.714 261.164,73.599 255.248,72.776 				"/>
				<g>
					<polygon fill="#F9662B" points="261.164,73.599 219.854,74.947 219.854,50.908 261.164,55.9 					"/>
					<line fill="none" stroke="#F5AE3D" stroke-miterlimit="10" x1="219.854" y1="50.908" x2="219.854" y2="146.647"/>
				</g>
			</g>
			<g>
				<ellipse fill="#EBA883" cx="220.393" cy="106.247" rx="2.819" ry="1.922"/>
				<polygon fill="#EBA883" points="204.301,97.163 201.093,96.744 201.771,92.26 204.979,92.68 				"/>
				<path fill="#EBA883" d="M203.738,95.898c-1.658-0.483-2.44-2.539-1.747-4.591s2.599-3.324,4.256-2.84
					c1.658,0.484,2.992,3.025,2.298,5.077l-0.676-0.156C207.093,95.245,205.305,96.356,203.738,95.898z"/>
				<path fill="#003C77" d="M209.327,115.049h-12.18c0,0,0.704-15.814,2.308-18.22c0.903-1.354,4.979-0.589,7.127,2.12
					C208.292,101.104,208.576,105.524,209.327,115.049z"/>
				<path fill="#EBA883" d="M219.105,105.705c0,0-9.384-0.326-9.824-0.63c-0.44-0.303-7.95-6.219-8.722-5.462
					c-1.295,1.27,3.965,7.855,8.282,7.957s10.526-0.607,10.526-0.607L219.105,105.705z"/>
				<path fill="#001E42" d="M209.327,115.049c0,0,1.02,11.876-6.714,20.611c-2.255,2.547-4.911,4.991-4.911,4.991l-3.457-1.535
					l7.92-14.019c0,0,0.352-1.91,0.363-4.134c0.011-2.164-0.3-4.625-1.572-5.914H209.327z"/>
				<path fill="#012456" d="M197.226,115.049c0,0-1.383,4.323,2.727,5.747c1.233,0.427,2.579,0.976,3.426,1.883
					c1.954,2.092,2.331,4.431,2.331,7.201l-0.273,13.139h3.831l2.083-15.005c0,0,0.386-4.713-2.074-8.295
					c-2.572-3.746-4.446-4.67-4.446-4.67H197.226z"/>
				<path fill="#001524" d="M201.675,93.064c-0.176-1.193,0.041-2.697,0.599-4.042c0.608-1.464,2.475-2.097,4.008-1.439l3.824,1.641
					l-0.367,0.539c-0.461,0.676-1.367,0.963-2.175,0.689l-0.569-0.192c-1.356-0.458-2.876-0.059-3.773,0.992L201.675,93.064z"/>
				<path fill="#09468E" d="M205.858,102.525l-1.797,2.882l-3.311-2.555c-2.028-1.876-1.352-4.759,2.169-2.545L205.858,102.525z"/>
				<g>
					<path fill="#001524" d="M205.437,146.022h8.436v-0.794l0,0c0-0.438-0.383-0.794-0.854-0.794l0,0
						c-0.637,0-1.262-0.149-1.82-0.433l-1.931-0.982h-3.831V146.022z"/>
					<rect x="205.437" y="146.022" fill="#707070" width="8.436" height="0.625"/>
				</g>
				<g>
					<path fill="#001524" d="M192.853,141.825l7.61,3.381l0.369-0.716l0,0c0.203-0.396,0.023-0.87-0.402-1.059l0,0
						c-0.574-0.255-1.07-0.64-1.441-1.12l-1.286-1.66l-3.457-1.535L192.853,141.825z"/>
					<polygon fill="#707070" points="200.174,145.77 192.563,142.389 192.853,141.825 200.463,145.206 					"/>
				</g>
			</g>
		</g>
		<g>
			<path fill="#EBA883" d="M222.626,336.889c-1.173-0.468-1.853-1.436-1.518-2.163c0.335-0.727,1.558-0.938,2.732-0.47
				c1.174,0.467,1.853,1.436,1.518,2.163C225.023,337.146,223.8,337.356,222.626,336.889z"/>
			<path fill="#003C77" d="M243.796,333.321c0,0-4.964,4.851-7.41,4.77c-2.446-0.081-11.043-2.928-11.043-2.928l-0.953,2.343
				c0,0,11.547,4.988,16.068,3.025c4.521-1.964,7.925-5.198,7.925-5.198L243.796,333.321z"/>
			<path fill="#EBA883" d="M220.719,343.75c-1.251-0.234-2.13-1.053-1.962-1.828c0.168-0.776,1.319-1.215,2.57-0.981
				c1.251,0.234,2.13,1.052,1.963,1.828C223.122,343.544,221.971,343.983,220.719,343.75z"/>
			<path fill="#EBA883" d="M240.018,334.143c1.104-1.247,0.55-3.366-1.237-4.732c-1.787-1.367-4.13-1.463-5.234-0.216
				c-1.104,1.248-0.726,4.054,1.061,5.42l0.474-0.474C236.824,335.3,238.975,335.322,240.018,334.143z"/>
			<path fill="#09468E" d="M243.035,332.986l4.331,1.907c0,0,9.066,3.479,10.063,9.278l-9.065,1.159l-2.994-2.396
				c0,0-2.97,0.868-4.687-1.345C238.966,339.378,243.035,332.986,243.035,332.986z"/>
			<path fill="#09468E" d="M243.035,332.986c0,0-6.171,8.932-8.583,9.317c-2.412,0.388-11.455-0.761-11.455-0.761l-0.416,2.474
				c0,0,12.402,2.684,16.394-0.1c3.993-2.783,8.391-9.023,8.391-9.023L243.035,332.986z"/>
			<path fill="#001E42" d="M257.429,344.172c0,0,2.06,5.306-1.194,7.285c-3.254,1.979-3.053,7.132-3.053,7.132l9.158-1.814v3.386
				l-11.528,3.245l-2.49-2.091c0,0-2.982-13.621,3.209-16.388L257.429,344.172z"/>
			<path fill="#012456" d="M257.429,344.172c0,0,1.303,7.873-6.971,6.986c-8.274-0.886-4.012,2.471-4.012,2.471l2.595,2.934
				c1.198,1.353,2.064,2.933,2.537,4.63l0.066,0.239h-3.643c0,0-20.039-13.576-3.317-14.733c4.16-0.503,3.68-1.367,3.68-1.367
				L257.429,344.172z"/>
			<path fill="#001524" d="M238.896,329.183c-0.158,1.851-1.899,3.231-3.89,3.084c-1.991-0.146-3.476-1.766-3.318-3.616
				c0.158-1.852,1.899-3.232,3.891-3.085C237.569,325.713,239.055,327.332,238.896,329.183z"/>
			<path fill="#001524" d="M243.055,330.029c-0.11,1.295-1.329,2.261-2.721,2.158c-1.393-0.104-2.431-1.235-2.32-2.529
				c0.11-1.295,1.328-2.261,2.721-2.158C242.126,327.604,243.166,328.735,243.055,330.029z"/>
			<polygon fill="#EBA883" points="243.035,332.986 240.409,332.055 240.018,334.143 241.333,335.333 			"/>
			<path fill="#001524" d="M251.644,364.287h-1.561l0.015-0.672h-0.132c-0.542,0-1.08,0.108-1.574,0.318l-0.836,0.354h-3.121
				c-0.449,0-0.813-0.337-0.813-0.755l0,0c0-0.417,0.364-0.755,0.813-0.755l0,0c0.605,0,1.201-0.142,1.731-0.412l1.835-0.934h3.643
				V364.287z"/>
			<path fill="#001524" d="M265.411,356.774v1.451l-0.723-0.016v0.124c0,0.505,0.117,1.003,0.342,1.463l0.381,0.776v2.902
				c0,0.417-0.362,0.755-0.812,0.755l0,0c-0.449,0-0.813-0.338-0.813-0.755l0,0c0-0.563-0.152-1.116-0.442-1.609l-1.005-1.706
				v-3.386H265.411z"/>
		</g>
		<g>
			<path fill="#EBA883" d="M166.809,190.897c-1.539,0.749-3.657-0.189-4.73-2.094c-1.074-1.906-0.696-4.058,0.844-4.807
				c1.539-0.75,4.417,0.168,5.49,2.074l-0.596,0.335C168.681,188.228,168.264,190.189,166.809,190.897z"/>
			<path fill="#012456" d="M169.602,192.593c0,0,6.809,2.969,4.64,12.319s-3.198,13.108-3.198,13.108l-1.441-11.299V192.593z"/>
			<path fill="#001E42" d="M159.471,206.722h10.978c0,0,2.036-13.275-0.847-14.128c-2.882-0.852-7.249-0.73-8.69,0
				C159.471,193.324,159.471,206.722,159.471,206.722z"/>
			<path fill="#012456" d="M160.912,192.593c0,0-6.809,2.969-4.639,12.319c2.169,9.35,3.198,13.108,3.198,13.108v-11.299
				L160.912,192.593z"/>
			<path fill="#EBA883" d="M159.6,206.722h5.917l-0.084,34.485h-2.019C163.413,241.207,160.912,215.196,159.6,206.722z"/>
			<path fill="#EBBCA3" d="M165.413,206.722l1.514,34.485h2.019c0,0,0.553-28.096,1.496-34.485H165.413z"/>
			<path fill="#EBA883" d="M165.278,194.504L165.278,194.504c-0.82,0-1.483-0.617-1.483-1.379v-3.357
				c0-0.761,0.664-1.379,1.483-1.379l0,0c0.819,0,1.483,0.618,1.483,1.379v3.357C166.762,193.887,166.098,194.504,165.278,194.504z"
				/>
			<ellipse fill="#001524" cx="164.187" cy="183.737" rx="1.99" ry="1.85"/>
			<ellipse fill="#001524" cx="161.805" cy="185.404" rx="1.99" ry="1.85"/>
			<ellipse fill="#001524" cx="162.345" cy="188.389" rx="1.99" ry="1.85"/>
			<path fill="#001524" d="M165.432,243.446h-1.085l0.01-0.468h-0.092c-0.377,0-0.75,0.075-1.094,0.222l-0.582,0.247h-2.171
				c-0.312,0-0.565-0.236-0.565-0.526l0,0c0-0.29,0.253-0.525,0.565-0.525l0,0c0.42,0,0.834-0.098,1.204-0.286l1.792-0.901h2.019
				V243.446z"/>
			<path fill="#001524" d="M166.927,243.446h1.086l-0.011-0.468h0.092c0.377,0,0.75,0.075,1.094,0.222l0.582,0.247h2.171
				c0.312,0,0.565-0.236,0.565-0.526l0,0c0-0.29-0.253-0.525-0.565-0.525l0,0c-0.421,0-0.835-0.098-1.204-0.286l-1.791-0.901h-2.019
				V243.446z"/>
			<path fill="#001524" d="M170.909,225.773h-11.382c-2.154-6.158-1.147-12.607-0.056-19.051h10.978
				C172.468,214.161,173.201,219.872,170.909,225.773z"/>
			<path fill="#FFFFFF" d="M163.795,191.999l-0.901,0.109l0.901,3.178l1.483-0.782l1.483,0.782l1.148-3.07
				c0,0-0.471-0.072-0.629-0.09c-0.129-0.015-0.519-0.043-0.519-0.043l-1.453,2.05L163.795,191.999z"/>
		</g>
	</g>
</g>
<g id="DESIGNED_BY_FREEPIK">
</g>
</svg>
