<svg xmlns="http://www.w3.org/2000/svg" width="500" height="500" viewBox="0 0 500 500"><rect width="500" height="500" fill="#fff" opacity="0.9"/><g transform="translate(-42.908 -47.408)"><g transform="translate(82.773 50.908)"><g transform="translate(147.285 145.363)"><rect width="110.263" height="330.603" transform="translate(0 0.096)" fill="#003c77"/><rect width="74.587" height="330.605" transform="translate(35.677)" fill="#09468e"/></g><g transform="translate(207.819 164.828)"><line x2="21.503" y2="94.704" fill="none" stroke="#001e42" stroke-miterlimit="10" stroke-width="1"/><line x2="21.504" y2="94.704" transform="translate(45.144)" fill="none" stroke="#001e42" stroke-miterlimit="10" stroke-width="1"/><line x1="45.144" transform="translate(13.811 61.622)" fill="none" stroke="#001e42" stroke-miterlimit="10" stroke-width="1"/><line x1="45.144" transform="translate(19.159 82.353)" fill="none" stroke="#001e42" stroke-miterlimit="10" stroke-width="1"/><line x1="45.144" transform="translate(4.585 20.157)" fill="none" stroke="#001e42" stroke-miterlimit="10" stroke-width="1"/><line x1="45.144" transform="translate(9.55 40.89)" fill="none" stroke="#001e42" stroke-miterlimit="10" stroke-width="1"/></g><g transform="translate(299.639 339.187)"><rect width="92.943" height="136.874" fill="#012456"/><rect width="39.349" height="136.874" fill="#001e42"/></g><g transform="translate(80.249 292.526)"><rect width="92.942" height="183.536" transform="translate(0 0)" fill="#0e72cc"/><rect width="74.026" height="183.536" transform="translate(0 0)" fill="#2b7fe3"/></g><g transform="translate(138.28 363.062)"><rect width="92.942" height="113" transform="translate(0 0)" fill="#efefef"/><rect width="57.728" height="113" transform="translate(0 0)" fill="#fff" opacity="0.9"/></g><g transform="translate(219.62 258.847)"><rect width="92.942" height="217.214" transform="translate(0 0.062)" fill="#bcbcbc" opacity="0.9"/><rect width="59.598" height="217.214" transform="translate(33.343)" fill="#c6c6c6" opacity="0.9"/></g><g transform="translate(157.766 265.675)"><g transform="translate(0 26.851)"><line x1="41.935" y2="184.432" transform="translate(45.144)" fill="none" stroke="#f5ae3d" stroke-miterlimit="10" stroke-width="1"/><line x1="41.933" y2="184.432" fill="none" stroke="#f5ae3d" stroke-miterlimit="10" stroke-width="1"/><line x2="45.144" transform="translate(13.782 123.817)" fill="none" stroke="#f5ae3d" stroke-miterlimit="10" stroke-width="1"/><line x2="45.145" transform="translate(9.072 144.55)" fill="none" stroke="#f5ae3d" stroke-miterlimit="10" stroke-width="1"/><line x2="45.144" transform="translate(4.052 165.281)" fill="none" stroke="#f5ae3d" stroke-miterlimit="10" stroke-width="1"/><line x2="45.144" transform="translate(28.123 61.622)" fill="none" stroke="#f5ae3d" stroke-miterlimit="10" stroke-width="1"/><line x2="45.144" transform="translate(22.776 82.352)" fill="none" stroke="#f5ae3d" stroke-miterlimit="10" stroke-width="1"/><line x2="45.145" transform="translate(19.361 103.086)" fill="none" stroke="#f5ae3d" stroke-miterlimit="10" stroke-width="1"/><line x2="45.144" transform="translate(37.348 20.157)" fill="none" stroke="#f5ae3d" stroke-miterlimit="10" stroke-width="1"/><line x2="45.144" transform="translate(32.384 40.888)" fill="none" stroke="#f5ae3d" stroke-miterlimit="10" stroke-width="1"/></g><g transform="translate(34.705)"><path d="M214.081,240.606s7.5-10.454,20.122-14.833v3.818s-9.716,5.655-9.958,11.293S214.081,240.606,214.081,240.606Z" transform="translate(-207.053 -225.771)" fill="#efefef"/><path d="M245.234,230.613c-1.372,1.275-3.226,1.62-4.14.769s-.544-2.574.828-3.848,3.225-1.618,4.14-.769S246.606,229.337,245.234,230.613Z" transform="translate(-193.285 -225.499)" fill="#eba883"/><path d="M220.632,237.688c-2.039,1.559-5.5.776-7.735-1.747s-2.391-5.834-.351-7.393,6.624-1.026,8.858,1.5l-.775.67C222.525,233.174,222.558,236.213,220.632,237.688Z" transform="translate(-208.594 -224.786)" fill="#eba883"/><path d="M218.832,237.5l-4.751-1.109.155-1.614,3.074-.884Z" transform="translate(-207.053 -221.555)" fill="#eba883"/><path d="M215.494,239.3s-3.583,10.5-4.134,18.958l13.868-.062s.81-4.913,3.09-8.084c2.118-2.944,2.571-4.488,11.94-6.538s17.674-12.729,17.674-12.729l-2.2-2.563s-9.37,9.734-18.464,10.761S215.494,239.3,215.494,239.3Z" transform="translate(-208.466 -224.467)" fill="#fff"/><path d="M216.638,238.993a14.318,14.318,0,0,1-5.807-3.049,3.983,3.983,0,0,1,.056-6.07l4.631-4.1.614.782a2.451,2.451,0,0,1-.17,3.242l-.611.638a4.476,4.476,0,0,0-.6,5.509Z" transform="translate(-209.455 -225.772)" fill="#001524"/><g transform="translate(1.284 33.793)"><path d="M218.971,248.014h-7.06s-4.116,8.373.814,13.6a240.713,240.713,0,0,1,.217,24.625c-.064,1.416-.4,7.911-.387,10.945h5.821C220.4,285.131,224.233,257.109,218.971,248.014Z" transform="translate(-210.3 -248.014)" fill="#001e42"/></g><g transform="translate(1.98 33.73)"><path d="M239.753,261.72c-2.729-4.807-7.66-11.542-14.212-13.747l-13.868.062s-5.962,12.885,12.566,12.885c7.773,0,9.234,4.543,9.307,9.567l.229,5.833H239.6S240.912,263.763,239.753,261.72Z" transform="translate(-210.758 -247.973)" fill="#012456"/></g></g></g><g transform="translate(0 476.124)"><path d="M82.773,376.969H524.9l.273-12.682H83.046Z" transform="translate(-82.773 -364.287)" fill="#0244a3"/><path d="M82.773,376.969H183.462l.061-12.682H82.835Z" transform="translate(-82.773 -364.287)" fill="#00418f"/></g><g transform="translate(217.47 327.753)"><path d="M225.909,271.194h12.815v-1.206h0a1.255,1.255,0,0,0-1.3-1.208h0a6.094,6.094,0,0,1-2.764-.656l-2.934-1.492h-5.82Z" transform="translate(-225.909 -266.631)" fill="#001524"/><rect width="12.815" height="0.95" transform="translate(0 4.563)" fill="#707070"/></g><g transform="translate(196.008 348.634)"><path d="M211.783,284.939H224.6v-1.208h0a1.255,1.255,0,0,0-1.3-1.206h0a6.086,6.086,0,0,1-2.765-.658l-2.932-1.492h-5.82Z" transform="translate(-211.783 -280.375)" fill="#001524"/><rect width="12.815" height="0.95" transform="translate(0 4.564)" fill="#707070"/></g><g transform="translate(166.806)"><g transform="translate(11.845 71.596)"><path d="M230.331,99.714s-13.723,3.634-14.513,3.388-14.631-5.508-15.363-4.078c-1.229,2.4,9.7,9.614,15.991,7.872a141.91,141.91,0,0,0,14.9-5.482Z" transform="translate(-200.359 -97.644)" fill="#eba883"/><path d="M218.29,102.513c.389,1.55,2.546,2.2,4.819,1.445s3.8-2.616,3.412-4.168-2.546-2.2-4.819-1.445S217.9,100.963,218.29,102.513Z" transform="translate(-191.079 -98.032)" fill="#eba883"/></g><g transform="translate(41.464)"><path d="M301.486,79.58,255.248,96.2V59.675Z" transform="translate(-201.473 -46.355)" fill="#e8551a"/><path d="M255.248,89.394l8.988-15.368-8.988-1.25Z" transform="translate(-201.473 -39.551)" fill="#d63700"/><path d="M282.617,85.383l-62.763,2.048V50.908l62.763,7.584Z" transform="translate(-219.854 -50.908)" fill="#f9662b"/><line y2="145.458" fill="none" stroke="#f5ae3d" stroke-miterlimit="10" stroke-width="1"/></g><g transform="translate(0 55.327)"><ellipse cx="4.283" cy="2.92" rx="4.283" ry="2.92" transform="translate(38 25.831)" fill="#eba883"/><path d="M205.967,99.709l-4.874-.637,1.03-6.813L207,92.9Z" transform="translate(-188.133 -84.76)" fill="#eba883"/><path d="M204.776,99.81c-2.519-.734-3.707-3.858-2.654-6.975s3.949-5.05,6.466-4.315,4.546,4.6,3.491,7.714L211.053,96C209.874,98.818,207.157,100.506,204.776,99.81Z" transform="translate(-187.798 -86.783)" fill="#eba883"/><path d="M215.652,124.851H197.147s1.07-24.027,3.507-27.682c1.372-2.057,7.565-.895,10.828,3.221C214.08,103.664,214.511,110.38,215.652,124.851Z" transform="translate(-190.182 -82.727)" fill="#003c77"/><path d="M228.84,108.9s-14.257-.5-14.926-.957-12.079-9.449-13.252-8.3c-1.968,1.93,6.024,11.934,12.583,12.089a145.746,145.746,0,0,0,15.992-.922Z" transform="translate(-188.514 -80.976)" fill="#eba883"/><path d="M217.159,115.049s1.55,18.043-10.2,31.315c-3.426,3.87-7.461,7.583-7.461,7.583l-5.252-2.332,12.033-21.3a39.957,39.957,0,0,0,.551-6.281c.017-3.288-.456-7.027-2.388-8.985Z" transform="translate(-191.69 -72.925)" fill="#001e42"/><path d="M197.342,115.049s-2.1,6.568,4.143,8.732a12.927,12.927,0,0,1,5.205,2.861c2.969,3.178,3.542,6.732,3.542,10.941l-.415,19.962h5.82l3.165-22.8s.586-7.161-3.151-12.6c-3.908-5.691-6.755-7.1-6.755-7.1H197.342Z" transform="translate(-190.258 -72.925)" fill="#012456"/><path d="M201.706,96.045a12.189,12.189,0,0,1,.91-6.141,4.632,4.632,0,0,1,6.089-2.186l5.81,2.493-.558.819a2.9,2.9,0,0,1-3.3,1.047l-.865-.292a5.339,5.339,0,0,0-5.732,1.507Z" transform="translate(-187.862 -87.323)" fill="#001524"/><path d="M209.1,104.093l-2.73,4.379-5.03-3.882c-3.081-2.85-2.054-7.23,3.3-3.867Z" transform="translate(-188.9 -80.996)" fill="#09468e"/><g transform="translate(19.56 84.62)"><path d="M205.437,147.582h12.817v-1.206h0a1.256,1.256,0,0,0-1.3-1.206h0a6.1,6.1,0,0,1-2.765-.658l-2.934-1.492h-5.821Z" transform="translate(-205.437 -143.019)" fill="#001524"/><rect width="12.817" height="0.95" transform="translate(0 4.563)" fill="#707070"/></g><g transform="translate(0 78.69)"><path d="M192.853,143.232l11.562,5.137.561-1.088h0a1.172,1.172,0,0,0-.611-1.609h0a5.667,5.667,0,0,1-2.189-1.7l-1.954-2.522-5.252-2.332Z" transform="translate(-192.412 -139.116)" fill="#001524"/><path d="M204.127,147.819l-11.564-5.137.441-.857,11.562,5.137Z" transform="translate(-192.563 -137.709)" fill="#707070"/></g></g></g><g transform="translate(206.572 417.278)"><path d="M223.459,338.386c-1.782-.711-2.815-2.182-2.306-3.286s2.367-1.425,4.151-.714,2.815,2.182,2.306,3.286S225.242,339.1,223.459,338.386Z" transform="translate(-217.549 -321.166)" fill="#eba883"/><path d="M253.874,333.321s-7.542,7.37-11.258,7.247-16.778-4.449-16.778-4.449l-1.448,3.56s17.544,7.578,24.412,4.6a46.623,46.623,0,0,0,12.041-7.9Z" transform="translate(-215.8 -321.522)" fill="#003c77"/><path d="M221.749,345.241c-1.9-.356-3.236-1.6-2.981-2.777s2-1.846,3.9-1.49,3.236,1.6,2.982,2.777S223.651,345.6,221.749,345.241Z" transform="translate(-218.736 -317.598)" fill="#eba883"/><path d="M243.7,337.167c1.677-1.895.836-5.114-1.879-7.189s-6.275-2.223-7.952-.328-1.1,6.159,1.612,8.235l.72-.72C238.848,338.925,242.116,338.959,243.7,337.167Z" transform="translate(-211.367 -324.12)" fill="#eba883"/><path d="M244.476,332.986l6.58,2.9s13.774,5.286,15.289,14.1l-13.773,1.761-4.549-3.64s-4.512,1.319-7.121-2.043S244.476,332.986,244.476,332.986Z" transform="translate(-207.559 -321.696)" fill="#09468e"/><path d="M253.657,332.986s-9.376,13.571-13.04,14.156-17.4-1.156-17.4-1.156l-.632,3.759s18.843,4.078,24.908-.152,12.749-13.709,12.749-13.709Z" transform="translate(-216.74 -321.696)" fill="#09468e"/><path d="M262.531,344.172s3.13,8.062-1.814,11.068-4.638,10.836-4.638,10.836l13.914-2.756v5.144l-17.515,4.93-3.783-3.177s-4.531-20.695,4.876-24.9Z" transform="translate(-203.745 -315.887)" fill="#001e42"/><path d="M267.506,344.172s1.98,11.962-10.591,10.614-6.1,3.754-6.1,3.754L254.762,363a17.848,17.848,0,0,1,3.855,7.035l.1.363h-5.535s-30.446-20.626-5.04-22.384c6.32-.764,5.591-2.077,5.591-2.077Z" transform="translate(-208.72 -315.887)" fill="#012456"/><path d="M242.645,331.067a5.382,5.382,0,0,1-5.91,4.686,5.235,5.235,0,0,1-5.041-5.494,5.383,5.383,0,0,1,5.912-4.687A5.235,5.235,0,0,1,242.645,331.067Z" transform="translate(-212.016 -325.555)" fill="#001524"/><path d="M245.677,331.346a3.765,3.765,0,0,1-4.134,3.279,3.661,3.661,0,0,1-3.525-3.842,3.764,3.764,0,0,1,4.134-3.279A3.663,3.663,0,0,1,245.677,331.346Z" transform="translate(-208.729 -324.549)" fill="#001524"/><path d="M244.6,333.469l-3.99-1.414-.594,3.172,2,1.808Z" transform="translate(-207.684 -322.18)" fill="#eba883"/><path d="M255.81,365.77h-2.372l.023-1.021h-.2a6.126,6.126,0,0,0-2.391.483l-1.27.538h-4.742a1.193,1.193,0,0,1-1.235-1.147h0a1.194,1.194,0,0,1,1.235-1.147h0a5.806,5.806,0,0,0,2.63-.626l2.788-1.419h5.535Z" transform="translate(-205.813 -306.924)" fill="#001524"/><path d="M267.006,356.774v2.2l-1.1-.024v.188a5.05,5.05,0,0,0,.52,2.223l.579,1.179v4.409a1.191,1.191,0,0,1-1.234,1.147h0a1.194,1.194,0,0,1-1.235-1.147h0a4.814,4.814,0,0,0-.672-2.445l-1.527-2.592v-5.144h4.667Z" transform="translate(-196.093 -309.343)" fill="#001524"/></g><g transform="translate(111.022 198.999)"><path d="M169.583,194.617c-2.338,1.138-5.556-.287-7.186-3.181s-1.057-6.165,1.282-7.3,6.711.255,8.341,3.151l-.906.509C172.427,190.561,171.793,193.541,169.583,194.617Z" transform="translate(-152.927 -180.927)" fill="#eba883"/><path d="M169.6,192.593s10.345,4.511,7.05,18.717-4.859,19.915-4.859,19.915L169.6,214.058V192.593Z" transform="translate(-148.702 -176.327)" fill="#012456"/><path d="M159.471,214.368H176.15s3.093-20.169-1.287-21.465-11.014-1.109-13.2,0S159.471,214.368,159.471,214.368Z" transform="translate(-153.964 -176.635)" fill="#001e42"/><path d="M163.543,192.593S153.2,197.1,156.495,211.31s4.859,19.915,4.859,19.915V214.058Z" transform="translate(-155.846 -176.327)" fill="#012456"/><path d="M159.6,206.722h8.99l-.128,52.394h-3.067S161.593,219.6,159.6,206.722Z" transform="translate(-153.897 -168.99)" fill="#eba883"/><path d="M165.413,206.722l2.3,52.394h3.068s.84-42.687,2.273-52.394Z" transform="translate(-150.878 -168.99)" fill="#ebbca3"/><path d="M166.048,197.68h0a2.177,2.177,0,0,1-2.253-2.1v-5.1a2.179,2.179,0,0,1,2.253-2.1h0a2.179,2.179,0,0,1,2.253,2.1v5.1A2.176,2.176,0,0,1,166.048,197.68Z" transform="translate(-151.718 -178.51)" fill="#eba883"/><ellipse cx="3.023" cy="2.811" rx="3.023" ry="2.811" transform="translate(9.649)" fill="#001524"/><ellipse cx="3.023" cy="2.811" rx="3.023" ry="2.811" transform="translate(6.03 2.533)" fill="#001524"/><ellipse cx="3.023" cy="2.811" rx="3.023" ry="2.811" transform="translate(6.85 7.068)" fill="#001524"/><path d="M168.329,244.608h-1.648l.015-.711h-.14a4.232,4.232,0,0,0-1.662.337l-.884.375h-3.3a.831.831,0,0,1-.858-.8h0a.83.83,0,0,1,.858-.8h0a4.044,4.044,0,0,0,1.829-.435l2.723-1.369h3.068v3.4Z" transform="translate(-153.765 -151.08)" fill="#001524"/><path d="M166.927,244.608h1.65l-.017-.711h.14a4.232,4.232,0,0,1,1.662.337l.884.375h3.3a.831.831,0,0,0,.858-.8h0a.83.83,0,0,0-.858-.8h0a4.034,4.034,0,0,1-1.829-.435l-2.721-1.369h-3.068Z" transform="translate(-150.092 -151.08)" fill="#001524"/><path d="M177.479,235.667H160.186c-3.273-9.356-1.743-19.154-.085-28.945h16.679C179.848,218.024,180.962,226.7,177.479,235.667Z" transform="translate(-154.594 -168.99)" fill="#001524"/><path d="M164.263,192l-1.369.166,1.369,4.828,2.253-1.188,2.253,1.188,1.744-4.664s-.716-.109-.956-.137c-.2-.023-.789-.065-.789-.065l-2.208,3.115Z" transform="translate(-152.186 -176.636)" fill="#fff"/></g></g></g></svg>