<svg xmlns="http://www.w3.org/2000/svg" width="35" height="35" viewBox="0 0 167 140"><g transform="translate(-9878 -6038)"><rect width="167" height="140" rx="35" transform="translate(9878 6038)" fill="#44d3fd"/><g transform="translate(2 3)"><g transform="translate(9891.485 6047)"><g transform="translate(18.046)" fill="#fff"><path d="M 56.53176498413086 104 C 52.29164886474609 104 49.40096664428711 102.6781311035156 47.15896606445313 99.71396636962891 C 44.93801498413086 96.77761840820313 43.52667999267578 92.49479675292969 42.0324821472168 87.96051788330078 C 40.15874862670898 82.27449798583984 38.03499984741211 75.82981872558594 33.77009963989258 70.66300201416016 C 30.21701431274414 66.35936737060547 23.8230152130127 64.03493499755859 17.63954734802246 61.78701782226563 C 13.71086502075195 60.35879898071289 9.648431777954102 58.88195037841797 6.8285813331604 57.03338241577148 C 3.436898231506348 54.80995178222656 3.001948118209839 52.80026626586914 3.001948118209839 51.2978515625 C 3.001948118209839 44.52838516235352 4.403548240661621 38.06091690063477 7.167798042297363 32.0750846862793 C 9.827948570251465 26.31469917297363 13.65964794158936 21.1777172088623 18.55648231506348 16.80681610107422 C 23.43329811096191 12.45378303527832 29.15673065185547 9.04461669921875 35.56781387329102 6.67401647567749 C 42.16088104248047 4.236116886138916 49.21417999267578 3 56.53176498413086 3 C 63.77988052368164 3 70.80825042724609 4.342249870300293 77.42161560058594 6.989449977874756 C 83.80071258544922 9.542900085449219 89.52774810791016 13.19648361206055 94.44363403320313 17.84873390197754 C 99.34784698486328 22.48995018005371 103.1962966918945 27.89019966125488 105.8820343017578 33.89948272705078 C 108.6566467285156 40.10758209228516 110.0634841918945 46.7021484375 110.0634841918945 53.5 C 110.0634841918945 60.2978515625 108.6566467285156 66.89241790771484 105.8820343017578 73.10051727294922 C 103.1962966918945 79.10980224609375 99.34784698486328 84.51004791259766 94.44363403320313 89.15126800537109 C 89.52774810791016 93.80352020263672 83.80071258544922 97.45709991455078 77.42161560058594 100.0105514526367 C 70.80825042724609 102.6577529907227 63.77988052368164 104 56.53176498413086 104 Z" stroke="none"/><path d="M 56.53177642822266 6 C 28.19729614257813 6 6.001953125 25.89720153808594 6.001953125 51.29785919189453 C 6.001953125 54.36423873901367 12.72919464111328 56.80984115600586 18.66451263427734 58.9675407409668 C 25.22561645507813 61.35274124145508 32.01009368896484 63.81914138793945 36.08371734619141 68.75323486328125 C 40.70773315429688 74.35511779785156 42.92527770996094 81.08444213867188 44.88177490234375 87.02159881591797 C 48.29409790039063 97.37660217285156 50.0650749206543 101 56.53177642822266 101 C 84.39505767822266 101 107.0634765625 79.69158172607422 107.0634765625 53.5 C 107.0634765625 27.30841827392578 84.39505767822266 6 56.53177642822266 6 M 56.53177642822266 0 C 87.75335693359375 0 113.0634765625 23.9527587890625 113.0634765625 53.5 C 113.0634765625 83.0472412109375 87.75335693359375 107 56.53177642822266 107 C 38.42335510253906 107 41.97425842285156 85.31478118896484 31.45647430419922 72.57276153564453 C 24.13553619384766 63.70539855957031 0.001953125 63.70780181884766 0.001953125 51.29785919189453 C 0.001953125 21.75061798095703 25.31015777587891 0 56.53177642822266 0 Z" stroke="none" fill="#3a5158"/></g><path d="M9896.784,6089.2s-2.6,13.2-7.832,19.016-13.633-.553-12.332,4.783.52,12,16.641,18.5,51.354,7.874,51.354,7.874-4.463-17.625-16.077-29.814S9896.784,6089.2,9896.784,6089.2Z" transform="translate(-9876.485 -6036)" fill="none" stroke="#3a5158" stroke-linecap="round" stroke-width="6"/><path d="M-4.445,1.19l35.92,17.269L44.492,53.965l-14.675-1.15s-20.854.739-38.71-6.2S-25.058,30.605-25.058,30.605a15.567,15.567,0,0,0,10.9-4.243c4.6-4.594,7.494-14.132,7.494-14.132Z" transform="translate(28.428 47)" fill="#fff"/><ellipse cx="6.823" cy="7" rx="6.823" ry="7" transform="translate(52.16 33)" fill="#3a5158"/><ellipse cx="6.823" cy="7" rx="6.823" ry="7" transform="translate(83.35 33)" fill="#3a5158"/><path d="M9926.847,6095.333s3.566,17.147,21.095,16.938,21.1-16.206,21.1-16.206" transform="translate(-9873.861 -6039)" fill="none" stroke="#3a5158" stroke-linecap="round" stroke-width="6"/><g transform="translate(30.717 89)" fill="#556c73" stroke="#3a5158" stroke-width="8"><ellipse cx="14.133" cy="14" rx="14.133" ry="14" stroke="none"/><ellipse cx="14.133" cy="14" rx="10.133" ry="10" fill="none"/></g><g transform="translate(77.502 89)" fill="#556c73" stroke="#3a5158" stroke-width="8"><ellipse cx="14.133" cy="14" rx="14.133" ry="14" stroke="none"/><ellipse cx="14.133" cy="14" rx="10.133" ry="10" fill="none"/></g></g></g></g></svg>