<svg xmlns="http://www.w3.org/2000/svg" xmlns:xlink="http://www.w3.org/1999/xlink" width="100" height="100" viewBox="0 0 100 100"><defs><filter id="a" x="25.332" y="29.392" width="51.416" height="37.373" filterUnits="userSpaceOnUse"><feOffset dx="1" dy="1" input="SourceAlpha"/><feGaussianBlur stdDeviation="0.05" result="b"/><feFlood flood-opacity="0.161"/><feComposite operator="in" in2="b"/><feComposite in="SourceGraphic"/></filter><filter id="c" x="29.038" y="31.74" width="45.349" height="33.569" filterUnits="userSpaceOnUse"><feOffset dx="1" dy="1" input="SourceAlpha"/><feGaussianBlur stdDeviation="0.5" result="d"/><feFlood flood-opacity="0.161"/><feComposite operator="in" in2="d"/><feComposite in="SourceGraphic"/></filter><filter id="e" x="30.768" y="32.044" width="42.193" height="13.824" filterUnits="userSpaceOnUse"><feOffset dx="1" dy="1" input="SourceAlpha"/><feGaussianBlur stdDeviation="0.5" result="f"/><feFlood flood-opacity="0.161"/><feComposite operator="in" in2="f"/><feComposite in="SourceGraphic"/></filter><filter id="g" x="30.649" y="50.568" width="14.907" height="13.824" filterUnits="userSpaceOnUse"><feOffset dx="1" dy="1" input="SourceAlpha"/><feGaussianBlur stdDeviation="0.5" result="h"/><feFlood flood-opacity="0.161"/><feComposite operator="in" in2="h"/><feComposite in="SourceGraphic"/></filter><filter id="i" x="40.091" y="43.747" width="8.086" height="8.367" filterUnits="userSpaceOnUse"><feOffset dx="1" dy="1" input="SourceAlpha"/><feGaussianBlur stdDeviation="0.5" result="j"/><feFlood flood-opacity="0.161"/><feComposite operator="in" in2="j"/><feComposite in="SourceGraphic"/></filter><filter id="k" x="46.912" y="43.747" width="8.086" height="8.367" filterUnits="userSpaceOnUse"><feOffset dx="1" dy="1" input="SourceAlpha"/><feGaussianBlur stdDeviation="0.5" result="l"/><feFlood flood-opacity="0.161"/><feComposite operator="in" in2="l"/><feComposite in="SourceGraphic"/></filter><filter id="m" x="53.733" y="43.747" width="8.086" height="8.367" filterUnits="userSpaceOnUse"><feOffset dx="1" dy="1" input="SourceAlpha"/><feGaussianBlur stdDeviation="0.5" result="n"/><feFlood flood-opacity="0.161"/><feComposite operator="in" in2="n"/><feComposite in="SourceGraphic"/></filter><filter id="o" x="46.684" y="64.228" width="6.467" height="7.032" filterUnits="userSpaceOnUse"><feOffset dx="1" dy="1" input="SourceAlpha"/><feGaussianBlur stdDeviation="0.05" result="p"/><feFlood flood-opacity="0.161"/><feComposite operator="in" in2="p"/><feComposite in="SourceGraphic"/></filter><filter id="q" x="42.188" y="68.722" width="15.457" height="3.66" filterUnits="userSpaceOnUse"><feOffset dx="1" dy="1" input="SourceAlpha"/><feGaussianBlur stdDeviation="0.05" result="r"/><feFlood flood-opacity="0.161"/><feComposite operator="in" in2="r"/><feComposite in="SourceGraphic"/></filter><filter id="s" x="44.461" y="50.568" width="28.72" height="13.824" filterUnits="userSpaceOnUse"><feOffset dx="1" dy="1" input="SourceAlpha"/><feGaussianBlur stdDeviation="0.5" result="t"/><feFlood flood-opacity="0.161"/><feComposite operator="in" in2="t"/><feComposite in="SourceGraphic"/></filter></defs><g transform="translate(-10122 -6022)"><g transform="translate(10122 6022)"><ellipse cx="50" cy="50" rx="50" ry="50" fill="#24a6ec"/><g transform="translate(25.332 29.391)"><g transform="translate(50.266) rotate(90)"><g transform="matrix(0, -1, 1, 0, -29.39, 75.6)" filter="url(#a)"><rect width="36.222" height="50.266" transform="translate(75.6 29.39) rotate(90)" fill="#006d94"/></g><g transform="matrix(0, -1, 1, 0, -29.39, 75.6)" filter="url(#c)"><rect width="30.569" height="42.348" transform="translate(71.89 32.24) rotate(90)" fill="#fff"/></g><g transform="matrix(0, -1, 1, 0, -29.39, 75.6)" filter="url(#e)"><rect width="10.824" height="39.193" transform="translate(70.46 32.54) rotate(90)" fill="#71a0e6"/></g><g transform="matrix(0, -1, 1, 0, -29.39, 75.6)" filter="url(#g)"><g transform="translate(43.06 51.07) rotate(90)" fill="#71e671" stroke="#71e671" stroke-width="1"><rect width="10.824" height="11.908" stroke="none"/><rect x="0.5" y="0.5" width="9.824" height="10.908" fill="none"/></g></g><g transform="matrix(0, -1, 1, 0, -29.39, 75.6)" filter="url(#i)"><rect width="5.367" height="5.086" rx="2" transform="translate(45.68 44.25) rotate(90)" fill="#e6ac71"/></g><g transform="matrix(0, -1, 1, 0, -29.39, 75.6)" filter="url(#k)"><rect width="5.367" height="5.086" rx="2" transform="translate(52.5 44.25) rotate(90)" fill="#e6ac71"/></g><g transform="matrix(0, -1, 1, 0, -29.39, 75.6)" filter="url(#m)"><rect width="5.367" height="5.086" rx="2" transform="translate(59.32 44.25) rotate(90)" fill="#e6ac71"/></g><g transform="matrix(0, -1, 1, 0, -29.39, 75.6)" filter="url(#o)"><rect width="5.882" height="5.317" transform="translate(52 64.23) rotate(90)" fill="#006d94"/></g><g transform="matrix(0, -1, 1, 0, -29.39, 75.6)" filter="url(#q)"><rect width="2.51" height="14.306" transform="translate(56.49 68.72) rotate(90)" fill="#006d94"/></g><g transform="matrix(0, -1, 1, 0, -29.39, 75.6)" filter="url(#s)"><rect width="10.824" height="25.72" transform="translate(70.68 51.07) rotate(90)" fill="#a071e6"/></g></g></g></g></g></svg>