<svg xmlns="http://www.w3.org/2000/svg" width="994.306" height="246.354" viewBox="0 0 994.306 246.354"><g transform="translate(-15308.694 -5587.646)"><path d="M136.264,262.029C120.266,115.758,0,0,0,0V994.306H246.354S74.962,928.559,47.439,745.007,152.263,408.3,136.264,262.029Z" transform="translate(16303 5587.646) rotate(90)" fill="#1f729e"/><path d="M114.111,262.029C100.714,115.758,0,0,0,0V994.306H206.3S62.775,928.559,39.727,745.007,127.509,408.3,114.111,262.029Z" transform="translate(16303 5587.646) rotate(90)" fill="#1b7eb2"/><path d="M96.751,262.029C85.391,115.758,0,0,0,0V994.306H174.917S53.225,928.559,33.683,745.007,108.11,408.3,96.751,262.029Z" transform="translate(16303 5587.646) rotate(90)" fill="#24a6ec"/></g></svg>