<svg xmlns="http://www.w3.org/2000/svg" xmlns:xlink="http://www.w3.org/1999/xlink" width="691.715" height="279.842" viewBox="0 0 691.715 279.842"><defs><linearGradient id="a" x1="-0.143" y1="0.384" x2="1" y2="0.39" gradientUnits="objectBoundingBox"><stop offset="0" stop-color="#63c4f8"/><stop offset="1" stop-color="#269dde"/></linearGradient></defs><g transform="translate(-16519.695 -4683.127)"><g transform="translate(-1031)"><g transform="translate(17550.695 4759.687)"><g transform="translate(0)"><path d="M190.669,178.49C186.334,76.732,77.15,0,77.15,0H0V691.716H203.282S105.853,610.637,98.4,482.944,195,280.248,190.669,178.49Z" transform="translate(691.716) rotate(90)" fill="url(#a)"/></g></g><g transform="translate(17550.695 4759.687)"><g transform="translate(0)"><path d="M166.3,178.49C162.523,76.732,67.291,0,67.291,0H0V691.716H177.305S92.327,610.637,85.823,482.944,170.085,280.248,166.3,178.49Z" transform="translate(691.716) rotate(90)" fill="#1b7eb2"/></g></g><g transform="translate(17550.695 4759.687)"><path d="M127.9,178.49C125,76.732,51.753,0,51.753,0H-76.56V691.716H136.365S71.008,610.637,66.006,482.944,130.811,280.248,127.9,178.49Z" transform="translate(691.716) rotate(90)" fill="#1f729e"/></g></g></g></svg>