<svg xmlns="http://www.w3.org/2000/svg" xmlns:xlink="http://www.w3.org/1999/xlink" width="994.305" height="230.713" viewBox="0 0 994.305 230.713"><defs><linearGradient id="a" x1="-0.143" y1="0.384" x2="1" y2="0.39" gradientUnits="objectBoundingBox"><stop offset="0" stop-color="#63c4f8"/><stop offset="1" stop-color="#269dde"/></linearGradient></defs><g transform="translate(-17550.695 -4759.687)"><g transform="translate(-3074 3837)"><path d="M216.4,256.57C211.478,110.3,87.56,0,87.56,0H0V994.306H230.713s-110.576-116.547-119.039-300.1S221.317,402.842,216.4,256.57Z" transform="translate(21619 922.687) rotate(90)" fill="url(#a)"/></g><g transform="translate(-3074 3837)"><g transform="translate(20624.695 922.687)"><path d="M192.033,256.57C187.667,110.3,77.7,0,77.7,0H0V994.306H204.736S106.61,877.759,99.1,694.207,196.4,402.842,192.033,256.57Z" transform="translate(994.305) rotate(90)" fill="#1b7eb2"/></g></g><g transform="translate(-3074 3837)"><g transform="translate(20624.695 922.687)"><path d="M153.632,256.57C150.14,110.3,62.164,0,62.164,0H0V994.306H163.8s-78.5-116.547-84.512-300.1S157.125,402.842,153.632,256.57Z" transform="translate(994.306) rotate(90)" fill="#1f729e"/></g></g></g></svg>