<svg xmlns="http://www.w3.org/2000/svg" width="1000" height="546.501" viewBox="0 0 1000 546.501"><g transform="translate(6317 -11316)"><rect width="1000" height="543" transform="translate(-6317 11316)" fill="#fff"/><rect width="74.51" height="71.918" rx="35.959" transform="translate(-6036.726 11536.924)" fill="#24a6ec"/><rect width="140.381" height="140.381" rx="70.191" transform="translate(-5513.212 11350.757)" fill="#2e9ad4"/><rect width="209.276" height="209.276" rx="104.638" transform="translate(-6304 11525.693)" fill="#1f729e"/><rect width="45.786" height="47.514" rx="22.893" transform="translate(-5513.212 11687.456)" fill="#1b7eb2"/><rect width="45.786" height="47.514" rx="22.893" transform="translate(-5839.544 11373)" fill="#2e9ad4"/><rect width="124.615" height="124.615" rx="62.308" transform="translate(-5855.958 11710.969)" fill="#1b7eb2"/><path d="M62.308,0a62.308,62.308,0,0,1,62.308,62.308c0,4.487-124.615,4.109-124.615,0A62.308,62.308,0,0,1,62.308,0Z" transform="translate(-5466.958 11796.969)" fill="#2e9ad4"/><path d="M0,0H43.043s8.292,24.571-4.208,35.071S0,39.279,0,39.279Z" transform="translate(-6317 11316)" fill="#1d9fe5"/></g></svg>